<svg viewBox="0 0 1024 1024" xmlns="http://www.w3.org/2000/svg" id="图层_1"><defs><style>.cls-1,.cls-13,.cls-14,.cls-15,.cls-4,.cls-5,.cls-7,.cls-9{isolation:isolate;}.cls-1{opacity:0.05;}.cls-2{fill:#292a2e;}.cls-3{fill:#f4f4f4;}.cls-4{opacity:0.03;}.cls-5{opacity:0.7;}.cls-6{fill:#fff;}.cls-7{opacity:0.34;}.cls-8{fill:#fffffa;}.cls-9{opacity:0.1;}.cls-10{fill:#203c79;}.cls-11{fill:#494949;}.cls-12{fill:#0cbc8b;}.cls-13{opacity:0.2;}.cls-14{opacity:0.5;}.cls-15{opacity:0.3;}.cls-16{fill:none;}.cls-17{fill:#367cff;}.cls-18{opacity:0.58;}.cls-19{opacity:0.88;}.cls-20{fill:#ff9e85;}.cls-21{fill:#0c0c0c;}.cls-22{fill:#262626;}.cls-23{fill:#0a0a0a;}.cls-24{fill:#333;}.cls-25{fill:#eef5ff;}.cls-26{fill:#054ddd;}.cls-27{fill:#7689d6;}.cls-28{fill:#677cc1;}.cls-29{fill:#8a9edd;}.cls-30{fill:#d6e6f2;}.cls-31{fill:#5fb7ff;}.cls-32{fill:#e5f2f8;}</style></defs><g class="cls-1"><rect height="11.1" width="16.63" y="808.98" x="262.04" class="cls-2"></rect></g><g class="cls-1"><rect height="11.1" width="16.63" y="808.98" x="92.05" class="cls-2"></rect></g><rect height="223.34" width="217.09" y="585.27" x="76.81" class="cls-3"></rect><g class="cls-4"><rect height="223.34" width="217.09" y="585.27" x="76.81" class="cls-2"></rect></g><rect height="223.34" width="217.09" y="585.27" x="117.04" class="cls-3"></rect><g class="cls-1"><rect height="11.1" width="16.63" y="808.98" x="302.27" class="cls-2"></rect></g><g class="cls-1"><rect height="11.1" width="16.63" y="808.98" x="132.28" class="cls-2"></rect></g><g class="cls-5"><rect height="42.91" width="200.8" y="595.73" x="125.19" class="cls-6"></rect></g><g class="cls-5"><rect height="42.91" width="200.8" y="649.14" x="125.19" class="cls-6"></rect></g><g class="cls-5"><rect height="42.91" width="200.8" y="702.54" x="125.19" class="cls-6"></rect></g><g class="cls-1"><circle r="6" cy="617.18" cx="225.59" class="cls-2"></circle></g><g class="cls-1"><circle r="6" cy="670.59" cx="225.59" class="cls-2"></circle></g><g class="cls-1"><circle r="6" cy="724" cx="225.59" class="cls-2"></circle></g><g class="cls-5"><rect height="42.91" width="200.8" y="757.16" x="125.19" class="cls-6"></rect></g><g class="cls-1"><circle r="6" cy="778.61" cx="225.59" class="cls-2"></circle></g><rect height="159.51" width="122.55" y="194.44" x="675.58" class="cls-3"></rect><rect height="159.51" width="3.97" y="194.44" x="798.13" class="cls-3"></rect><g class="cls-1"><rect height="159.51" width="3.97" y="194.44" x="798.13" class="cls-2"></rect></g><g class="cls-1"><rect height="101.4" width="77.9" y="223.5" x="697.9" class="cls-2"></rect></g><g class="cls-4"><rect height="101.4" width="4.06" y="223.5" x="771.74" class="cls-2"></rect></g><rect height="101.14" width="100.22" y="393.18" x="798.13" class="cls-3"></rect><g class="cls-1"><rect height="64.29" width="63.71" y="411.6" x="816.39" class="cls-2"></rect></g><rect height="101.14" width="3.98" y="393.18" x="898.35" class="cls-3"></rect><g class="cls-1"><rect height="101.14" width="3.98" y="393.18" x="898.35" class="cls-2"></rect></g><g class="cls-4"><rect height="64.29" width="4.06" y="411.6" x="876.04" class="cls-2"></rect></g><g id="c_3_c"><rect height="339.33" width="339.33" y="184.87" x="59.88" class="cls-3"></rect></g><g id="c_3_c-2"><rect height="339.33" width="3.89" y="184.87" x="55.99" class="cls-3"></rect></g><g class="cls-1" id="c_3_c-3"><rect height="339.33" width="3.89" y="184.87" x="55.99" class="cls-2"></rect></g><g class="cls-1" id="c_3_c-4"><polygon points="142.08 418.7 142.08 329.92 214.81 329.92 214.81 381.5 327.46 381.5 327.46 472.83 375.33 472.83 375.33 524.21 327.46 524.21 318.23 524.21 76.2 524.21 76.2 418.7 142.08 418.7" class="cls-2"></polygon></g><g id="c_3_wh"><g class="cls-7" id="c_3_wh-2"><rect height="9.64" width="52.96" y="339.56" x="152.51" class="cls-8"></rect></g><g class="cls-7" id="c_3_wh-3"><rect height="9.64" width="52.96" y="359.54" x="152.51" class="cls-8"></rect></g><g class="cls-7" id="c_3_wh-4"><rect height="9.64" width="52.96" y="379.51" x="152.51" class="cls-8"></rect></g></g><g id="c_3_wh-5"><g class="cls-7" id="c_3_wh-6"><rect height="9.64" width="9.76" y="428.06" x="85.59" class="cls-8"></rect></g><g class="cls-7" id="c_3_wh-7"><rect height="9.64" width="9.76" y="448.03" x="85.59" class="cls-8"></rect></g><g class="cls-7" id="c_3_wh-8"><rect height="9.64" width="9.76" y="468.01" x="85.59" class="cls-8"></rect></g><g class="cls-7" id="c_3_wh-9"><rect height="9.64" width="9.76" y="428.06" x="103.65" class="cls-8"></rect></g><g class="cls-7" id="c_3_wh-10"><rect height="9.64" width="9.76" y="448.03" x="103.65" class="cls-8"></rect></g><g class="cls-7" id="c_3_wh-11"><rect height="9.64" width="9.76" y="468.01" x="103.65" class="cls-8"></rect></g><g class="cls-7" id="c_3_wh-12"><rect height="9.64" width="9.76" y="428.06" x="121.22" class="cls-8"></rect></g><g class="cls-7" id="c_3_wh-13"><rect height="9.64" width="9.76" y="448.03" x="121.22" class="cls-8"></rect></g><g class="cls-7" id="c_3_wh-14"><rect height="9.64" width="9.76" y="468.01" x="121.22" class="cls-8"></rect></g></g><polygon points="59.88 352.64 128.16 352.64 128.16 184.87 133.8 184.87 133.8 352.64 318.23 352.64 318.23 184.87 323.88 184.87 323.88 352.64 399.21 352.64 399.21 358.28 323.88 358.28 323.88 524.21 318.23 524.21 318.23 358.28 133.8 358.28 133.8 524.21 128.16 524.21 128.16 358.28 59.88 358.28 59.88 352.64" class="cls-6"></polygon><g id="c_3_c-5"><rect height="11.28" width="366.37" y="523.8" x="46.36" class="cls-3"></rect></g><g class="cls-9" id="c_3_c-6"><rect height="11.28" width="366.37" y="523.8" x="46.36" class="cls-2"></rect></g><g class="cls-9" id="c_3_c-7"><rect height="11.28" width="5.29" y="523.8" x="41.07" class="cls-2"></rect></g><g class="cls-9" id="c_3_c-8"><rect height="11.28" width="5.29" y="523.8" x="41.07" class="cls-2"></rect></g><rect rx="60.16" height="521.92" width="747.41" y="240.72" x="139.19" class="cls-10"></rect><path d="M866.41,301.06V702.3a41.31,41.31,0,0,1-41.31,41.3H199.28A41.31,41.31,0,0,1,158,702.3V600.77h12.74a22.17,22.17,0,0,0,22.18-22.17V424.76a22.18,22.18,0,0,0-22.18-22.18H158V301.06a41.32,41.32,0,0,1,41.31-41.31H825.1a41.32,41.32,0,0,1,41.31,41.31Z" class="cls-6"></path><path d="M150.2,600.77V402.58h20.51a22.19,22.19,0,0,1,22.18,22.18V578.6a22.18,22.18,0,0,1-22.18,22.17Z" class="cls-10"></path><path d="M914.85,771.92a.82.82,0,0,1-.59-.24c-1.16-1.16-3-22.46-8.15-85.86-2.08-25.93-4.05-50.43-5.49-65.31-.1-1.07-.51-1.19-.65-1.23-2-.6-8,4.12-11.29,8.25a.8.8,0,0,1-1.15.12.81.81,0,0,1-.13-1.15c2.21-2.74,9.41-9.89,13.05-8.8a2.69,2.69,0,0,1,1.81,2.65c1.44,14.9,3.41,39.4,5.5,65.34,3.09,38.53,6.6,82.18,7.75,84.92a.82.82,0,0,1-.66,1.31Z" class="cls-11"></path><ellipse transform="translate(-199.55 691.16) rotate(-38.72)" ry="23.39" rx="31.72" cy="629.58" cx="883.88" class="cls-12"></ellipse><g class="cls-13"><ellipse transform="translate(-199.55 691.16) rotate(-38.72)" ry="23.39" rx="31.72" cy="629.58" cx="883.88" class="cls-6"></ellipse></g><path d="M863,652a.39.39,0,0,1-.26-.1.41.41,0,0,1-.05-.58l39-47a.41.41,0,1,1,.63.53l-39,47a.41.41,0,0,1-.32.15Z" class="cls-6"></path><path d="M923.34,761.85a.86.86,0,0,1-.27-.05.83.83,0,0,1-.51-1l14.64-42.07A7.82,7.82,0,0,1,950,715.59l7.73,7.39a.82.82,0,1,1-1.14,1.19l-7.73-7.39a6.17,6.17,0,0,0-10.1,2.44L924.12,761.3a.83.83,0,0,1-.78.55Z" class="cls-11"></path><ellipse transform="translate(-240.54 751.35) rotate(-38.36)" ry="31.72" rx="23.39" cy="721.41" cx="959.65" class="cls-12"></ellipse><path d="M908.2,769.24a.83.83,0,0,1-.8-.64L882.84,665.94a3.91,3.91,0,0,0-6.76-1.65L868.51,673a.82.82,0,1,1-1.24-1.08l7.56-8.75a5.57,5.57,0,0,1,9.62,2.35L909,768.22a.82.82,0,0,1-.61,1,.63.63,0,0,1-.19,0Z" class="cls-11"></path><ellipse transform="translate(45.07 1437.25) rotate(-80.19)" ry="23.39" rx="31.72" cy="691.86" cx="876.1" class="cls-12"></ellipse><path d="M914.85,771.92h-.11A.81.81,0,0,1,914,771l15.68-127.31a7.25,7.25,0,0,1,12.63-3.91l17.93,20.3a.83.83,0,0,1-1.24,1.09l-17.92-20.3a5.61,5.61,0,0,0-9.77,3L915.66,771.2a.82.82,0,0,1-.81.72Z" class="cls-11"></path><ellipse transform="translate(-83.41 1170.56) rotate(-61.05)" ry="31.72" rx="23.39" cy="656" cx="950.89" class="cls-12"></ellipse><g class="cls-13"><ellipse transform="translate(-240.54 751.35) rotate(-38.36)" ry="31.72" rx="23.39" cy="721.41" cx="959.65" class="cls-6"></ellipse></g><g class="cls-14"><ellipse transform="translate(45.07 1437.25) rotate(-80.19)" ry="23.39" rx="31.72" cy="691.86" cx="876.1" class="cls-6"></ellipse></g><g class="cls-14"><ellipse transform="translate(-83.41 1170.56) rotate(-61.05)" ry="31.72" rx="23.39" cy="656" cx="950.89" class="cls-6"></ellipse></g><polygon points="934.9 879.93 894.79 879.93 888.14 751.61 941.55 751.61 934.9 879.93" class="cls-2"></polygon><g class="cls-15"><polygon points="934.9 879.93 894.79 879.93 888.14 751.61 941.55 751.61 934.9 879.93" class="cls-6"></polygon></g><path d="M979.33,746.68a.41.41,0,0,1-.32-.15l-39.37-49.74a.41.41,0,0,1,.65-.51L979.65,746a.4.4,0,0,1-.06.58.42.42,0,0,1-.26.08Z" class="cls-6"></path><path d="M976,675.34a.39.39,0,0,1-.25-.08L925.4,638.47a.41.41,0,0,1-.09-.57.43.43,0,0,1,.58-.09l50.38,36.79a.41.41,0,0,1,.09.57.42.42,0,0,1-.33.17Z" class="cls-6"></path><path d="M868.64,722.58l-.1,0a.42.42,0,0,1-.3-.5l16-60.09a.41.41,0,0,1,.51-.29.41.41,0,0,1,.29.5l-16,60.09a.43.43,0,0,1-.4.31Z" class="cls-6"></path><path d="M305.78,579.5V743.6H199.28A41.28,41.28,0,0,1,158,702.3V600.77h12.74a22.21,22.21,0,0,0,22.17-21.27Z" class="cls-3"></path><g class="cls-4"><path d="M305.78,579.5V743.6H199.28A41.28,41.28,0,0,1,158,702.3V600.77h12.74a22.21,22.21,0,0,0,22.17-21.27Z" class="cls-2"></path></g><path d="M341.55,579.5V743.6H199.27A41.28,41.28,0,0,1,158,702.3V600.77h12.74a22.15,22.15,0,0,0,19.69-12,21.79,21.79,0,0,0,2.47-9.3Z" class="cls-3"></path><g class="cls-5"><path d="M334.31,588.8v38.14H158V600.77h12.74a22.15,22.15,0,0,0,19.69-12Z" class="cls-6"></path></g><g class="cls-5"><rect height="38.14" width="176.34" y="636.27" x="157.97" class="cls-6"></rect></g><g class="cls-5"><path d="M334.31,683.76V721.9H162.91A41.09,41.09,0,0,1,158,702.3V683.76Z" class="cls-6"></path></g><g class="cls-1"><circle transform="translate(-384.01 791.83) rotate(-84.35)" r="5.34" cy="607.87" cx="245.05" class="cls-2"></circle></g><g class="cls-1"><circle transform="translate(-426.02 853.33) rotate(-85.93)" r="5.34" cy="655.35" cx="245.05" class="cls-2"></circle></g><g class="cls-1"><circle transform="translate(-473.38 897.44) rotate(-85.93)" r="5.34" cy="702.83" cx="245.05" class="cls-2"></circle></g><g class="cls-5"><path d="M334.31,732.3v11.3h-135a41.21,41.21,0,0,1-28.38-11.3Z" class="cls-6"></path></g><rect height="94.73" width="129.4" y="259.75" x="675.58" class="cls-3"></rect><rect height="94.73" width="4.2" y="259.75" x="804.98" class="cls-3"></rect><g class="cls-1"><rect height="94.73" width="4.2" y="259.75" x="804.98" class="cls-2"></rect></g><g class="cls-1"><rect height="64.05" width="82.25" y="259.75" x="699.15" class="cls-2"></rect></g><g class="cls-4"><rect height="64.05" width="4.28" y="259.75" x="777.12" class="cls-2"></rect></g><rect height="106.8" width="61.43" y="395.9" x="804.98" class="cls-3"></rect><g class="cls-1"><rect height="67.89" width="42.15" y="415.36" x="824.26" class="cls-2"></rect></g><path d="M411.08,259.75v275.7H192.89V424.76a22.18,22.18,0,0,0-22.18-22.18H158V301.06a41.32,41.32,0,0,1,41.31-41.31Z" class="cls-3"></path><g class="cls-1"><path d="M386.41,482.37v53.08H192.89V424.76a22.18,22.18,0,0,0-22.18-22.18H158V334.73h62.6V388H337v94.36Z" class="cls-2"></path></g><g id="c_3_wh-15"><g class="cls-7"><rect height="9.96" width="52.95" y="344.69" x="157.97" class="cls-8"></rect></g><g class="cls-7"><rect height="9.96" width="52.95" y="365.32" x="157.97" class="cls-8"></rect></g><g class="cls-7"><rect height="9.96" width="52.95" y="385.96" x="157.97" class="cls-8"></rect></g></g><polygon points="411.08 358.2 411.08 364.03 333.25 364.03 333.25 535.45 327.42 535.45 327.42 364.03 157.97 364.03 157.97 358.2 327.42 358.2 327.42 259.75 333.25 259.75 333.25 358.2 411.08 358.2" class="cls-6"></polygon><rect height="11.66" width="232.16" y="535.03" x="192.89" class="cls-3"></rect><g class="cls-9"><rect height="11.66" width="232.16" y="535.03" x="192.89" class="cls-2"></rect></g><path d="M866.41,301.06V702.3a41.31,41.31,0,0,1-41.31,41.3H199.28A41.31,41.31,0,0,1,158,702.3V600.77h12.74a22.17,22.17,0,0,0,22.18-22.17V424.76a22.18,22.18,0,0,0-22.18-22.18H158V301.06a41.32,41.32,0,0,1,41.31-41.31H825.1a41.32,41.32,0,0,1,41.31,41.31Z" class="cls-16"></path><polyline points="543.6 502.42 368.33 585.88 367.86 419.76 543.6 335.82 543.6 502.42" class="cls-17"></polyline><g class="cls-18"><polyline points="543.6 502.42 368.33 585.88 367.86 419.76 543.6 335.82 543.6 502.42" class="cls-6"></polyline></g><polyline points="543.6 502.41 657.46 585.88 657.93 419.76 543.6 335.82 543.6 502.41" class="cls-17"></polyline><g class="cls-19"><polyline points="543.6 502.41 657.46 585.88 657.93 419.76 543.6 335.82 543.6 502.41" class="cls-6"></polyline></g><path d="M483.41,671.79,366.62,586v-.62l.48-168.55,116.31,85.27Zm-114.32-87,111.85,82.12V503.38L369.55,421.72l-.46,163.07Z" class="cls-2"></path><path d="M480.94,671.3V502l177.75-84.65.48,168.86-.71.33L480.94,671.3Zm2.47-167.76V667.39l173.28-82.76-.46-163.39Z" class="cls-2"></path><path d="M367.1,587.83,366.62,419l178.22-85.11V503.2L367.1,587.83Zm2-167.29.47,163.38,172.81-82.29V337.78L369.09,420.54Z" class="cls-2"></path><path d="M658.69,588.31,542.37,503V333.38l116.8,85.76v.62l-.47,168.55ZM544.84,501.79l111.39,81.66.46-163.07L544.84,338.26Z" class="cls-2"></path><circle r="6.18" cy="502.75" cx="482.18" class="cls-17"></circle><circle r="6.18" cy="335.82" cx="543.6" class="cls-17"></circle><circle r="6.18" cy="667.53" cx="482.18" class="cls-17"></circle><circle r="6.18" cy="419.29" cx="657.93" class="cls-17"></circle><circle r="6.18" cy="419.29" cx="367.85" class="cls-17"></circle><circle r="6.18" cy="587.55" cx="657.93" class="cls-17"></circle><circle r="6.18" cy="587.55" cx="367.85" class="cls-17"></circle><circle r="6.18" cy="502.75" cx="543.6" class="cls-17"></circle><path d="M562.07,391.13l-12,19.79a2.07,2.07,0,0,0,.59,2.77l19.81,13.61a2.06,2.06,0,1,0,2.34-3.39l-16-11c7.91-2.39,27.58-5.65,45.93,12.7,23.13,23.13,10.32,49.86,9.76,51a2.06,2.06,0,1,0,3.69,1.83c.15-.3,14.74-30.47-10.54-55.75-19.24-19.24-40.43-16.33-49.55-13.8l9.48-15.64a2.05,2.05,0,0,0-.31-2.52,1.72,1.72,0,0,0-.39-.31,2.06,2.06,0,0,0-2.83.69Z" class="cls-12"></path><g id="b_4_ha"><path d="M593.27,405.05l11.2,9-.92-1.74a2.51,2.51,0,0,1,1-3.29,2.42,2.42,0,0,1,3.34,1.07L615.07,425a8,8,0,0,1-3.53,10.6h0A12.14,12.14,0,0,1,598,434l-8.32-7.16a2.47,2.47,0,0,1-.61-3.07,2.41,2.41,0,0,1,2.61-1.18.21.21,0,0,1,0-.11.25.25,0,0,1,.19-.09l-1.54-1.32a2.49,2.49,0,0,1-.54-3.24A2.41,2.41,0,0,1,593,417s0,0,0-.07l-.63-.54a2.63,2.63,0,0,1-.62-3.05,2.42,2.42,0,0,1,3.24-1l0,0-4.71-3.77a2.29,2.29,0,0,1-.27-3.3,2.36,2.36,0,0,1,3.22-.18Z" class="cls-20"></path><g class="cls-13" id="b_4_ha_sh"><path d="M595,412.61l.06.06,4.61,3.62a.23.23,0,0,0,.32,0,.23.23,0,0,0,0-.32l-4.61-3.62a.23.23,0,0,0-.32,0,.25.25,0,0,0,0,.26Z" class="cls-21"></path></g><g class="cls-13" id="b_4_ha_sh-2"><path d="M593,417.1a.12.12,0,0,0,.05,0l3.61,2.87a.23.23,0,0,0,.32,0,.22.22,0,0,0,0-.32l-3.61-2.87a.21.21,0,0,0-.31,0A.21.21,0,0,0,593,417.1Z" class="cls-21"></path></g><g class="cls-13" id="b_4_ha_sh-3"><path d="M591.75,422.72l0,.06,1.74,1.31a.23.23,0,1,0,.27-.36l-1.73-1.31a.23.23,0,0,0-.33.3Z" class="cls-21"></path></g></g><path d="M723.07,469.71l-59,22.5A15.94,15.94,0,0,1,647.43,489l-52.34-49.34,21.85-23.18,45,42.44L711.53,440l11.54,29.7Z" class="cls-17"></path><path d="M782.9,793.59s-2.67,13.8-15.59,14.57-10.13,11.07-10.13,11.07h49.4V794.55Z" class="cls-17"></path><path d="M798.13,541.74S798,537.59,798,547c.12,35.12.73,75.23,2.22,98.7,2.4,37.74,8.53,156.7,8.53,156.7l-32.46-.27L744.84,540.31l53.3,1.43Z" class="cls-22"></path><path d="M761.48,583.15s-1.35,25.48-1.6,31.47c-.57,13.83-.77,28.16-.77,44.4L754,616.44s3.74-13.34,7.49-33.29Z" class="cls-23"></path><path d="M725.11,793.59s-2.66,13.8-15.59,14.57-10.12,11.07-10.12,11.07h49.39V794.55Z" class="cls-17"></path><path d="M709.39,544.47s-2.87,120-2.45,125.88L719,801.49l31.92.59-3.11-136.47S750,628,759.11,593a271,271,0,0,0,8.36-54.83h0l-58.08,6.29Z" class="cls-22"></path><path d="M798.49,541.74h.1S798.52,539.7,798.49,541.74Z" class="cls-24"></path><path d="M704.82,477.85c.67,7.86,3.93,56.93,4.57,66.62H798.1c.5-8.74,2.75-47,4.65-64,1.81-16.3,5.37-24.47,2.76-29.29-4.26-7.87-15.91-12.43-23.85-13.5-4.85-.66-12.14-1.13-12.14-1.13s-.62,12.5-15.35,13.19c-20,1-18.71-13.19-18.81-13.19-3.24,0-22.16,1.53-26.34,4.75-7.31,5.63-5.62,19.91-4.2,36.58Z" class="cls-17"></path><path d="M704.9,476.6a.29.29,0,0,1-.29-.28l-.72-12.49a.3.3,0,0,1,.59,0l.72,12.49a.3.3,0,0,1-.28.31Z" class="cls-21"></path><path d="M817.28,544a16.19,16.19,0,0,0,15.19-21.79c-.92-2.49-22.4-59.38-26.49-69.92l-30.29,12.27C778,470.43,786.33,492.9,793,511l-11.12-1.21L778.4,542l37.12,1.87a17.29,17.29,0,0,0,1.76.09Z" class="cls-17"></path><g id="h_3_sk"><path d="M727.23,437c.09,0,2.65,9.62,22.63,8.12,13.83-1,17.2-10.45,17.52-10.45a34,34,0,0,1-4.58-1,8.21,8.21,0,0,1-4.56-5.66c-.62-2.39-.94-11.59-.94-16.2L736,416.57c.3,5.2,2.37,17.28-4.9,19.41-1.21.36-2.52.68-3.89,1Z" class="cls-20"></path></g><path d="M736.75,426.81c8.39.66,19.17-2.88,21.22-14.08l1.84-10.09c2.05-11.2-2.17-21.35-12.71-23.27h0c-10.53-1.93-20.07,5.7-22.12,16.89l-.82,4.48c-.78,4.29-2.37,24.88,12.59,26.07Z" class="cls-20"></path><path d="M729,416.53c1.5-7.57,2.19-12.61,2.11-17.94a13.81,13.81,0,0,1-1.08-9.83,8.19,8.19,0,0,1-4.9,1.25s3.5-14.07,15.43-17.86c2.19-.86,7.79-1.93,15.22-.91,6.32.86,21.9,5.59,24.13,23.13h0c.07.58,1.57,16.75,4.55,24.5,4,10.43,9.64,13.67,9.5,25.69C793.75,460,765.31,462.1,748.15,461s-26.73-6.8-26.85-17.95c-.14-12.49,4.66-11.33,7.68-26.47Z" class="cls-23"></path><rect transform="translate(259.54 1293.83) rotate(-88.04)" height="0.59" width="63.73" y="512.33" x="767.34" class="cls-21"></rect><rect height="66.19" width="87.09" y="104.12" x="791.78" class="cls-25"></rect><polygon points="818.75 156.42 800 137.67 819 118.67 822.19 121.86 806.37 137.67 821.93 153.24 818.75 156.42" class="cls-26"></polygon><polygon points="850.93 156.42 847.75 153.24 863.57 137.42 848.01 121.86 851.19 118.67 869.94 137.42 850.93 156.42" class="cls-26"></polygon><rect transform="translate(387.6 856.71) rotate(-67.49)" height="4.51" width="35.86" y="136.01" x="817.04" class="cls-26"></rect><rect height="7.71" width="87.09" y="96.41" x="791.78" class="cls-26"></rect><g id="_1"><rect rx="15.08" height="80.31" width="150.45" y="82" x="150.31" class="cls-27"></rect><path d="M150.31,147.23a15.08,15.08,0,0,0,15.08,15.08h6.16v21.53l29.06-21.53h85.07a15.08,15.08,0,0,0,15.08-15.08V97.08C244,153.87,150.31,147.23,150.31,147.23Z" class="cls-28"></path><path d="M245.67,106.52H165.55a4.18,4.18,0,0,1,0-8.36h80.12C251.1,98.18,251.15,106.49,245.67,106.52Z" class="cls-6"></path><path d="M197.87,126.33H165.55c-5.46,0-5.47-8.33,0-8.35h32.32C203.32,118,203.34,126.31,197.87,126.33Z" class="cls-6"></path><path d="M285.52,126.33H217.29a4.18,4.18,0,0,1,0-8.35h68.23C291,118,291,126.31,285.52,126.33Z" class="cls-6"></path><path d="M231.62,146.15H165.55c-5.44,0-5.48-8.33,0-8.35h66.07C237.06,137.82,237.1,146.13,231.62,146.15Z" class="cls-6"></path><path d="M278.64,82c-101.4,0-125,16.91-128.33,19.89-1.25-10,4.15-19.81,15.08-19.89Z" class="cls-29"></path></g><ellipse ry="21.09" rx="433.22" cy="879.04" cx="512" class="cls-30"></ellipse><path d="M208.29,760.67h75a2.49,2.49,0,0,1,2.49,2.49v73.53a2.49,2.49,0,0,1-2.49,2.49h-75a1,1,0,0,1-1-1V761.67A1,1,0,0,1,208.29,760.67Z" class="cls-31"></path><path d="M220.31,772.69h51a2.49,2.49,0,0,1,2.49,2.49v49.5a2.49,2.49,0,0,1-2.49,2.49h-51a1,1,0,0,1-1-1V773.69A1,1,0,0,1,220.31,772.69Z" class="cls-32"></path><path d="M159.3,872.37h37.93a54.27,54.27,0,0,0,54.11-54.11V736.77H105.19v81.49A54.27,54.27,0,0,0,159.3,872.37Z" class="cls-31"></path><rect height="71.15" width="4.98" y="736.77" x="134.45" class="cls-6"></rect><rect height="35.22" width="25.52" y="788.08" x="123.87" class="cls-6"></rect></svg>