<?xml version="1.0" standalone="no"?><!DOCTYPE svg PUBLIC "-//W3C//DTD SVG 1.1//EN" "http://www.w3.org/Graphics/SVG/1.1/DTD/svg11.dtd"><svg height="1024" node-id="1" sillyvg="true" template-height="1024" template-width="1024" version="1.1" viewBox="0 0 1024 1024" width="1024" xmlns="http://www.w3.org/2000/svg" xmlns:xlink="http://www.w3.org/1999/xlink"><defs node-id="151"></defs><g node-id="450"><path d="M 249.90 168.70 L 250.70 167.50 L 251.20 165.90 L 251.40 164.10 L 251.20 160.70 L 249.80 156.20 L 248.50 153.40 L 246.90 150.80 L 245.10 148.50 L 242.80 146.50 L 240.20 144.80 L 237.20 143.60 L 233.70 142.80 L 228.10 142.50 L 227.40 138.10 L 226.60 136.30 L 225.00 133.80 L 220.80 129.90 L 214.00 125.90 L 208.40 123.10 L 202.20 120.60 L 195.80 118.40 L 184.60 115.80 L 175.70 115.00 L 171.20 115.00 L 162.70 116.30 L 156.70 118.10 L 151.60 120.10 L 147.30 122.20 L 139.60 127.10 L 132.70 133.20 L 129.90 136.50 L 124.50 144.00 L 118.70 144.80 L 115.80 145.90 L 113.10 147.20 L 108.20 150.70 L 104.20 155.10 L 101.60 160.10 L 100.90 162.60 L 100.70 165.10 L 101.20 169.20 L 96.80 171.20 L 91.00 175.10 L 88.10 177.80 L 84.90 182.20 L 83.70 184.80 L 82.90 187.50 L 82.60 190.60 L 82.80 194.10 L 84.30 200.20 L 86.80 205.50 L 88.60 207.80 L 90.70 209.90 L 93.20 211.60 L 96.20 213.10 L 99.90 214.40 L 103.70 215.30 L 108.30 215.80 L 113.80 216.10 L 250.80 216.10 L 253.70 215.80 L 256.40 215.00 L 258.90 213.70 L 263.30 210.10 L 265.20 207.90 L 268.10 202.90 L 269.20 200.20 L 270.40 194.80 L 270.60 192.30 L 270.30 188.30 L 269.40 184.70 L 267.90 181.20 L 265.90 178.00 L 263.50 175.20 L 260.60 172.80 L 257.30 170.90 L 253.80 169.50 L 249.90 168.70 Z" fill="#d4e2ff" fill-rule="nonzero" group-id="1" node-id="156" stroke="none" target-height="101.100006" target-width="188" target-x="82.6" target-y="115"></path><path d="M 455.70 776.60 L 455.70 865.50 L 491.50 865.50 L 491.50 831.90 L 491.60 829.00 L 493.00 823.60 L 495.70 818.80 L 497.50 816.70 L 502.00 813.20 L 507.20 811.00 L 512.70 810.20 L 518.20 811.00 L 523.50 813.20 L 528.00 816.70 L 529.80 818.80 L 532.50 823.60 L 533.80 829.00 L 534.00 831.90 L 534.00 865.50 L 569.70 865.50 L 569.70 776.60 Z" fill="#2d4c7f" fill-rule="nonzero" group-id="1" node-id="158" stroke="none" target-height="88.900024" target-width="114" target-x="455.7" target-y="776.6"></path><path d="M 338.90 859.90 L 686.60 859.90 L 686.60 883.40 L 338.90 883.40 Z" fill="#203c79" fill-rule="nonzero" group-id="1" node-id="160" stroke="none" target-height="23.5" target-width="347.69998" target-x="338.9" target-y="859.9"></path><path d="M 104.90 335.10 L 920.50 335.10 L 920.50 791.60 L 104.90 791.60 Z" fill="#203c79" fill-rule="nonzero" group-id="1" node-id="162" stroke="none" target-height="456.49997" target-width="815.6" target-x="104.9" target-y="335.1"></path><path d="M 130.60 351.10 L 894.90 351.10 L 894.90 745.40 L 130.60 745.40 Z" fill="#ebf3ff" fill-rule="nonzero" group-id="1" node-id="164" stroke="none" target-height="394.30002" target-width="764.30005" target-x="130.6" target-y="351.1"></path><g node-id="451"><path d="M 839.50 745.40 L 828.20 742.40 L 806.00 735.40 L 780.60 725.70 L 752.10 713.20 L 709.70 693.40 L 667.50 672.90 L 645.30 661.40 L 623.20 649.30 L 601.50 636.70 L 580.00 623.60 L 558.80 609.90 L 537.90 595.80 L 517.30 581.20 L 497.00 566.20 L 477.10 550.70 L 457.50 534.70 L 438.20 518.30 L 419.30 501.50 L 400.80 484.30 L 382.70 466.70 L 365.00 448.70 L 347.60 430.30 L 330.60 411.60 L 314.10 392.50 L 298.10 373.20 L 282.40 353.50 L 130.60 353.50 L 130.60 747.70 L 849.80 747.70 L 839.50 745.40 Z" fill="#d9eaff" fill-opacity="0.5" fill-rule="nonzero" group-id="1,2" node-id="168" stroke="none" target-height="394.2" target-width="719.19995" target-x="130.6" target-y="353.5"></path></g><path d="M 130.10 745.40 L 895.40 745.40 L 895.40 752.60 L 130.10 752.60 Z" fill="#395289" fill-rule="nonzero" group-id="1" node-id="171" stroke="none" target-height="7.199951" target-width="765.30005" target-x="130.1" target-y="745.4"></path><path d="M 504.10 304.00 L 506.10 304.00 L 506.10 532.00 L 504.10 532.00 Z" fill="#203c79" fill-rule="nonzero" group-id="1" node-id="173" stroke="none" target-height="228" target-width="2" target-x="504.1" target-y="304"></path><path d="M 505.10 306.00 L 501.80 305.40 L 499.00 303.70 L 497.10 300.90 L 496.60 299.30 L 496.50 296.00 L 497.70 292.90 L 500.10 290.50 L 503.20 289.20 L 506.40 289.20 L 509.60 290.50 L 511.90 292.80 L 513.20 295.80 L 513.20 299.20 L 512.00 302.20 L 509.70 304.50 L 506.70 305.80 L 505.10 306.00 Z M 505.10 291.10 L 503.20 291.30 L 501.40 292.00 L 500.00 293.30 L 499.00 294.90 L 498.40 296.80 L 498.50 298.70 L 499.10 300.40 L 500.20 302.00 L 501.80 303.20 L 503.50 303.90 L 505.40 304.00 L 507.30 303.50 L 509.00 302.50 L 510.30 301.20 L 511.10 299.50 L 511.40 297.50 L 511.20 295.80 L 510.60 294.30 L 509.60 293.00 L 508.30 291.90 L 506.80 291.30 L 505.10 291.00 Z" fill="#203c79" fill-rule="nonzero" group-id="1" node-id="175" stroke="none" target-height="16.799988" target-width="16.700012" target-x="496.5" target-y="289.2"></path><path d="M 225.10 644.00 L 427.60 644.00 L 427.60 646.00 L 225.10 646.00 Z" fill="#5d81ec" fill-rule="nonzero" group-id="1" node-id="177" stroke="none" target-height="2" target-width="202.5" target-x="225.1" target-y="644"></path><path d="M 408.30 580.20 L 451.60 580.20 L 451.60 582.20 L 408.30 582.20 Z" fill="#203c79" fill-rule="nonzero" group-id="1" node-id="179" stroke="none" target-height="2" target-width="43.30002" target-x="408.3" target-y="580.2"></path><path d="M 618.30 577.90 L 650.80 577.90 L 650.80 579.90 L 618.30 579.90 Z" fill="#203c79" fill-rule="nonzero" group-id="1" node-id="181" stroke="none" target-height="2" target-width="32.5" target-x="618.3" target-y="577.9"></path><path d="M 215.80 653.30 L 213.00 652.90 L 210.60 652.10 L 208.50 650.80 L 206.90 649.20 L 205.60 646.50 L 205.60 643.50 L 206.90 640.80 L 208.50 639.20 L 210.60 637.80 L 213.00 637.00 L 215.80 636.70 L 218.60 637.00 L 221.00 637.90 L 223.10 639.20 L 224.70 640.80 L 226.00 643.50 L 226.10 645.00 L 225.50 647.80 L 224.70 649.10 L 223.10 650.80 L 221.00 652.10 L 218.60 652.90 L 215.80 653.30 Z M 215.80 638.70 L 213.60 639.00 L 211.60 639.60 L 209.90 640.60 L 208.60 641.80 L 207.80 643.30 L 207.50 645.00 L 207.80 646.60 L 208.60 648.10 L 209.90 649.40 L 211.60 650.40 L 213.60 651.00 L 215.80 651.30 L 218.00 651.00 L 220.00 650.40 L 221.70 649.40 L 223.00 648.10 L 223.80 646.60 L 224.10 645.00 L 223.80 643.30 L 223.00 641.80 L 221.70 640.60 L 220.00 639.60 L 218.00 638.90 L 215.80 638.70 Z" fill="#5d81ec" fill-rule="nonzero" group-id="1" node-id="183" stroke="none" target-height="16.599976" target-width="20.5" target-x="205.6" target-y="636.7"></path><path d="M 614.60 644.00 L 801.80 644.00 L 801.80 646.00 L 614.60 646.00 Z" fill="#5d81ec" fill-rule="nonzero" group-id="1" node-id="185" stroke="none" target-height="2" target-width="187.20001" target-x="614.6" target-y="644"></path><path d="M 810.40 653.30 L 807.80 652.90 L 805.50 652.10 L 803.60 650.80 L 802.10 649.20 L 801.30 647.90 L 800.80 645.00 L 801.30 642.10 L 803.60 639.20 L 805.50 637.80 L 807.80 637.00 L 810.40 636.70 L 813.00 637.00 L 815.20 637.90 L 817.20 639.20 L 818.70 640.80 L 819.40 642.10 L 820.00 645.00 L 819.40 647.90 L 818.70 649.20 L 817.20 650.80 L 815.20 652.10 L 813.00 652.90 L 810.40 653.30 Z M 810.40 638.70 L 808.30 638.90 L 806.50 639.60 L 805.00 640.60 L 803.80 641.80 L 803.00 643.30 L 802.80 645.00 L 803.00 646.60 L 803.80 648.10 L 805.00 649.40 L 806.50 650.40 L 808.30 651.00 L 810.40 651.30 L 812.40 651.00 L 814.20 650.40 L 815.80 649.40 L 817.00 648.10 L 817.70 646.70 L 818.00 645.00 L 817.70 643.30 L 817.00 641.80 L 815.80 640.60 L 814.20 639.60 L 812.40 639.00 L 810.40 638.70 Z" fill="#5d81ec" fill-rule="nonzero" group-id="1" node-id="187" stroke="none" target-height="16.599976" target-width="19.200012" target-x="800.8" target-y="636.7"></path><path d="M 410.30 580.40 L 408.30 580.40 L 408.30 483.60 L 363.50 483.60 L 363.50 481.60 L 410.30 481.60 L 410.30 580.40 Z" fill="#203c79" fill-rule="nonzero" group-id="1" node-id="189" stroke="none" target-height="98.80002" target-width="46.799988" target-x="363.5" target-y="481.6"></path><path d="M 357.50 490.90 L 355.30 490.60 L 353.40 489.80 L 351.70 488.50 L 350.40 486.80 L 349.60 484.80 L 349.30 482.60 L 349.60 480.40 L 350.40 478.40 L 351.70 476.80 L 353.40 475.50 L 355.30 474.70 L 357.50 474.40 L 359.80 474.60 L 361.70 475.50 L 363.40 476.80 L 364.70 478.40 L 365.50 480.40 L 365.80 482.60 L 365.50 484.80 L 364.70 486.80 L 363.40 488.50 L 361.70 489.80 L 359.80 490.60 L 357.50 490.90 Z M 357.50 476.40 L 355.70 476.60 L 354.10 477.40 L 352.70 478.60 L 351.70 480.20 L 351.30 482.00 L 351.40 483.90 L 352.00 485.60 L 353.10 487.10 L 354.60 488.20 L 356.30 488.80 L 358.10 488.90 L 359.90 488.40 L 361.50 487.50 L 362.80 486.10 L 363.50 484.50 L 363.80 482.60 L 363.60 480.90 L 363.00 479.50 L 362.00 478.20 L 360.70 477.20 L 359.20 476.60 L 357.50 476.40 Z" fill="#203c79" fill-rule="nonzero" group-id="1" node-id="191" stroke="none" target-height="16.5" target-width="16.5" target-x="349.3" target-y="474.4"></path><path d="M 651.20 580.40 L 649.20 580.40 L 649.20 424.60 L 731.60 424.60 L 731.60 426.60 L 651.20 426.60 L 651.20 580.40 Z" fill="#203c79" fill-rule="nonzero" group-id="1" node-id="193" stroke="none" target-height="155.80002" target-width="82.39996" target-x="649.2" target-y="424.6"></path><path d="M 737.50 434.40 L 734.30 433.80 L 731.70 432.00 L 729.90 429.30 L 729.20 426.10 L 729.90 423.00 L 731.70 420.30 L 734.40 418.50 L 737.50 417.90 L 740.70 418.50 L 743.40 420.30 L 745.20 423.00 L 745.80 426.20 L 745.20 429.30 L 743.40 432.00 L 740.70 433.80 L 737.50 434.40 Z M 737.50 419.90 L 735.80 420.10 L 734.40 420.80 L 733.10 421.70 L 732.10 423.00 L 731.50 424.50 L 731.30 426.20 L 731.50 427.90 L 732.10 429.30 L 733.10 430.60 L 734.40 431.60 L 735.80 432.20 L 737.50 432.40 L 739.20 432.20 L 740.70 431.60 L 742.90 429.30 L 743.50 427.90 L 743.80 426.20 L 743.50 424.50 L 742.90 423.00 L 742.00 421.70 L 740.70 420.80 L 739.20 420.10 L 737.50 419.90 Z" fill="#203c79" fill-rule="nonzero" group-id="1" node-id="195" stroke="none" target-height="16.5" target-width="16.599976" target-x="729.2" target-y="417.9"></path><path d="M 382.60 105.90 L 613.00 105.90 L 613.00 277.20 L 382.60 277.20 Z" fill="#ffffff" fill-rule="nonzero" group-id="1" node-id="197" stroke="none" target-height="171.30002" target-width="230.4" target-x="382.6" target-y="105.9"></path><path d="M 382.60 99.00 L 613.00 99.00 L 613.00 138.50 L 382.60 138.50 Z" fill="#244baa" fill-rule="nonzero" group-id="1" node-id="199" stroke="none" target-height="39.5" target-width="230.4" target-x="382.6" target-y="99"></path><path d="M 407.80 116.30 L 407.60 117.80 L 406.10 120.20 L 403.70 121.60 L 402.20 121.90 L 400.70 121.60 L 398.30 120.20 L 396.90 117.80 L 396.70 116.30 L 396.90 114.80 L 398.30 112.40 L 400.70 111.00 L 402.20 110.80 L 403.70 111.00 L 406.20 112.40 L 407.00 113.60 L 407.80 116.30 Z" fill="#ffffff" fill-rule="nonzero" group-id="1" node-id="201" stroke="none" target-height="11.099998" target-width="11.099976" target-x="396.7" target-y="110.8"></path><path d="M 435.40 116.30 L 435.20 118.00 L 434.50 119.40 L 433.40 120.60 L 432.00 121.40 L 430.40 121.80 L 428.80 121.80 L 427.30 121.20 L 426.00 120.20 L 425.00 118.90 L 424.50 117.40 L 424.40 115.80 L 424.80 114.20 L 425.60 112.80 L 426.80 111.70 L 428.30 111.00 L 429.90 110.80 L 432.70 111.50 L 433.80 112.40 L 434.70 113.60 L 435.40 116.30 Z" fill="#ffffff" fill-rule="nonzero" group-id="1" node-id="203" stroke="none" target-height="11" target-width="11" target-x="424.4" target-y="110.8"></path><path d="M 463.10 116.30 L 462.90 117.80 L 461.50 120.20 L 459.10 121.60 L 457.60 121.90 L 456.10 121.60 L 453.70 120.20 L 452.30 117.80 L 452.00 116.30 L 452.30 114.80 L 453.70 112.40 L 456.10 111.00 L 457.60 110.80 L 460.30 111.50 L 461.50 112.40 L 462.40 113.60 L 463.10 116.30 Z" fill="#ffffff" fill-rule="nonzero" group-id="1" node-id="205" stroke="none" target-height="11.099998" target-width="11.100006" target-x="452" target-y="110.8"></path><path d="M 416.80 209.30 L 442.40 209.30 L 442.40 263.00 L 416.80 263.00 Z" fill="#9ec0ff" fill-rule="nonzero" group-id="1" node-id="207" stroke="none" target-height="53.699997" target-width="25.600006" target-x="416.8" target-y="209.3"></path><path d="M 455.20 181.70 L 481.70 181.70 L 481.70 263.00 L 455.20 263.00 Z" fill="#8cb0ea" fill-rule="nonzero" group-id="1" node-id="209" stroke="none" target-height="81.3" target-width="26.5" target-x="455.2" target-y="181.7"></path><path d="M 500.10 162.40 L 529.00 162.40 L 529.00 263.00 L 500.10 263.00 Z" fill="#2e6adb" fill-rule="nonzero" group-id="1" node-id="211" stroke="none" target-height="100.600006" target-width="28.899994" target-x="500.1" target-y="162.4"></path><path d="M 548.20 146.80 L 583.50 146.80 L 583.50 263.00 L 548.20 263.00 Z" fill="#5d81ec" fill-rule="nonzero" group-id="1" node-id="213" stroke="none" target-height="116.2" target-width="35.299988" target-x="548.2" target-y="146.8"></path><path d="M 400.40 150.90 L 401.40 150.90 L 401.40 263.00 L 400.40 263.00 Z" fill="#5d81ec" fill-rule="nonzero" group-id="1" node-id="215" stroke="none" target-height="112.100006" target-width="1" target-x="400.4" target-y="150.9"></path><path d="M 400.90 262.50 L 585.60 262.50 L 585.60 263.50 L 400.90 263.50 Z" fill="#5d81ec" fill-rule="nonzero" group-id="1" node-id="217" stroke="none" target-height="1" target-width="184.69998" target-x="400.9" target-y="262.5"></path><g node-id="452"><path d="M 580.70 273.70 L 573.00 269.70 L 565.40 265.10 L 558.00 260.10 L 543.80 249.20 L 537.00 243.30 L 527.20 234.10 L 509.40 215.80 L 492.90 197.10 L 485.00 187.40 L 477.60 177.40 L 470.50 167.10 L 465.60 159.30 L 456.70 143.00 L 452.80 134.60 L 449.30 126.00 L 446.20 117.30 L 443.60 108.20 L 441.40 99.00 L 382.60 99.00 L 382.60 277.20 L 589.40 277.20 L 580.70 273.70 Z" fill="#9ec0ff" fill-opacity="0.5" fill-rule="nonzero" group-id="1,3" node-id="221" stroke="none" target-height="178.20001" target-width="206.80002" target-x="382.6" target-y="99"></path></g><path d="M 301.70 315.00 L 302.10 319.70 L 302.10 324.30 L 301.60 328.80 L 300.60 333.20 L 299.30 337.50 L 297.50 341.60 L 295.40 345.50 L 292.90 349.30 L 290.00 352.70 L 286.80 355.90 L 283.20 358.80 L 279.30 361.40 L 275.10 363.60 L 270.90 365.30 L 266.60 366.50 L 262.10 367.40 L 257.60 367.80 L 253.20 367.70 L 248.70 367.30 L 244.30 366.40 L 240.00 365.00 L 235.80 363.30 L 231.80 361.10 L 227.90 358.50 L 224.30 355.40 L 221.10 352.20 L 218.20 348.70 L 215.80 344.90 L 213.70 340.90 L 212.00 336.70 L 210.80 332.40 L 209.90 328.00 L 209.50 323.50 L 209.50 319.00 L 210.00 314.40 L 210.90 309.80 L 212.30 305.30 L 214.10 301.10 L 216.30 297.20 L 218.80 293.50 L 221.70 290.00 L 224.90 286.90 L 228.40 284.00 L 232.20 281.60 L 236.20 279.40 L 240.30 277.70 L 244.70 276.40 L 249.40 275.50 L 254.00 275.10 L 258.50 275.20 L 263.00 275.60 L 267.40 276.60 L 271.70 277.90 L 275.90 279.70 L 279.90 281.80 L 283.70 284.40 L 287.20 287.40 L 290.40 290.60 L 293.30 294.10 L 295.70 297.90 L 297.80 301.90 L 299.50 306.10 L 300.80 310.50 L 301.70 315.00 Z" fill="#203c79" fill-rule="nonzero" group-id="1" node-id="224" stroke="none" target-height="92.69998" target-width="92.600006" target-x="209.5" target-y="275.1"></path><path d="M 289.70 336.70 L 281.10 335.20 L 276.80 334.00 L 270.50 331.70 L 264.50 328.80 L 258.80 325.40 L 253.40 321.70 L 249.10 318.00 L 244.70 313.80 L 240.60 309.10 L 237.00 304.10 L 235.00 300.60 L 232.00 293.40 L 231.10 289.70 L 230.90 286.00 L 231.10 282.30 L 226.90 285.30 L 223.20 288.60 L 219.80 292.30 L 216.90 296.30 L 214.50 300.50 L 212.50 305.00 L 211.00 309.70 L 210.00 314.50 L 209.50 319.40 L 209.50 324.30 L 210.10 329.30 L 211.20 334.30 L 212.90 339.20 L 215.10 343.70 L 217.70 348.00 L 220.70 351.90 L 224.10 355.40 L 227.90 358.60 L 232.00 361.30 L 236.30 363.60 L 240.90 365.40 L 245.70 366.80 L 250.60 367.60 L 255.70 367.90 L 260.90 367.60 L 265.80 366.80 L 270.60 365.50 L 275.20 363.60 L 279.60 361.30 L 283.60 358.60 L 287.40 355.50 L 290.80 351.90 L 293.80 348.00 L 296.50 343.80 L 298.60 339.30 L 300.30 334.40 L 295.00 336.20 L 292.30 336.70 L 289.70 336.70 Z" fill="#406cdb" fill-rule="nonzero" group-id="1" node-id="226" stroke="none" target-height="85.600006" target-width="90.79999" target-x="209.5" target-y="282.3"></path><path d="M 254.40 319.50 L 277.70 375.10 L 310.10 341.90 L 254.40 319.50 Z" fill="#ffffff" fill-rule="nonzero" group-id="1" node-id="228" stroke="none" target-height="55.600006" target-width="55.700012" target-x="254.4" target-y="319.5"></path><path d="M 255.80 356.80 L 251.00 356.40 L 246.60 355.60 L 242.30 354.10 L 238.30 352.10 L 234.60 349.70 L 231.20 346.90 L 228.20 343.60 L 225.70 340.00 L 223.60 336.10 L 222.00 331.90 L 220.90 327.40 L 220.40 322.70 L 220.60 318.00 L 221.30 313.50 L 222.60 309.20 L 224.40 305.10 L 226.70 301.30 L 229.50 297.80 L 232.60 294.70 L 236.10 292.10 L 240.00 289.80 L 244.10 288.10 L 248.50 286.90 L 253.20 286.20 L 258.00 286.20 L 262.50 286.80 L 266.80 287.90 L 271.00 289.60 L 274.80 291.70 L 278.40 294.40 L 281.60 297.40 L 284.40 300.80 L 286.80 304.60 L 288.70 308.70 L 290.00 313.00 L 290.90 317.70 L 291.00 322.40 L 290.60 327.00 L 289.60 331.40 L 288.10 335.60 L 286.10 339.50 L 283.60 343.20 L 280.70 346.50 L 277.40 349.40 L 273.60 351.90 L 269.60 353.90 L 265.30 355.40 L 260.70 356.40 L 255.80 356.80 Z M 255.90 287.20 L 251.10 287.50 L 246.60 288.50 L 242.30 290.00 L 238.20 292.10 L 234.50 294.60 L 231.10 297.70 L 228.20 301.20 L 225.70 305.10 L 223.70 309.40 L 222.40 314.00 L 221.60 318.50 L 221.60 323.10 L 222.10 327.70 L 223.20 332.00 L 224.90 336.30 L 227.10 340.30 L 229.90 343.90 L 233.30 347.30 L 237.10 350.20 L 241.10 352.40 L 245.30 354.10 L 249.80 355.20 L 254.30 355.70 L 258.90 355.60 L 263.40 354.90 L 267.80 353.60 L 272.10 351.60 L 276.10 349.10 L 279.70 346.10 L 282.70 342.70 L 285.30 338.90 L 287.30 334.90 L 288.80 330.50 L 289.80 326.10 L 290.10 321.50 L 289.70 316.70 L 288.90 312.60 L 287.60 308.70 L 285.80 305.00 L 283.70 301.60 L 281.20 298.50 L 278.30 295.60 L 275.10 293.20 L 271.70 291.10 L 268.00 289.50 L 264.20 288.20 L 260.10 287.50 L 255.90 287.20 Z" fill="#ffffff" fill-rule="nonzero" group-id="1" node-id="230" stroke="none" target-height="70.599976" target-width="70.600006" target-x="220.4" target-y="286.2"></path><path d="M 859.60 607.00 L 1007.30 607.00 L 1007.30 700.90 L 859.60 700.90 Z" fill="#ffffff" fill-rule="nonzero" group-id="1" node-id="232" stroke="none" target-height="93.900024" target-width="147.70001" target-x="859.6" target-y="607"></path><path d="M 935.30 658.80 L 859.30 607.40 L 859.20 606.80 L 859.90 606.60 L 935.20 657.60 L 1007.10 606.60 L 1007.80 606.70 L 1007.60 607.40 Z" fill="#5d81ec" fill-rule="nonzero" group-id="1" node-id="234" stroke="none" target-height="52.200012" target-width="148.59998" target-x="859.2" target-y="606.6"></path><g node-id="453"><path d="M 914.10 607.00 L 859.60 607.00 L 859.60 700.80 L 1007.40 700.80 L 1007.40 683.50 L 995.80 680.30 L 984.40 675.60 L 977.10 671.80 L 970.00 667.50 L 963.00 662.70 L 956.30 657.50 L 949.90 652.00 L 943.70 646.10 L 932.40 633.60 L 922.40 620.40 L 914.10 607.00 Z" fill="#9ec0ff" fill-opacity="0.5" fill-rule="nonzero" group-id="1,4" node-id="238" stroke="none" target-height="93.79999" target-width="147.80005" target-x="859.6" target-y="607"></path></g><path d="M 865.70 925.70 L 865.50 927.10 L 864.80 928.60 L 863.60 930.10 L 859.10 933.30 L 855.50 935.00 L 850.90 936.70 L 840.70 939.40 L 824.50 942.00 L 813.30 943.00 L 801.70 943.60 L 789.20 943.70 L 776.70 943.20 L 765.10 942.30 L 753.90 941.00 L 737.90 938.00 L 727.80 935.00 L 719.60 931.40 L 717.00 929.60 L 715.20 928.00 L 713.40 925.00 L 713.20 923.50 L 713.50 922.10 L 714.10 920.60 L 715.30 919.10 L 717.20 917.60 L 719.90 915.90 L 723.40 914.20 L 732.80 911.10 L 744.60 908.60 L 754.40 907.20 L 765.60 906.20 L 777.20 905.60 L 789.70 905.50 L 802.30 906.00 L 813.80 906.90 L 825.00 908.20 L 841.00 911.20 L 851.20 914.20 L 855.80 916.00 L 859.30 917.80 L 861.90 919.60 L 863.70 921.20 L 864.90 922.70 L 865.50 924.20 L 865.70 925.70 Z" fill="#b8d0ff" fill-rule="nonzero" group-id="1" node-id="241" stroke="none" target-height="38.200012" target-width="152.5" target-x="713.2" target-y="905.5"></path><path d="M 789.00 533.80 L 775.60 544.90 L 761.90 555.70 L 747.90 566.10 L 733.70 576.10 L 727.50 564.80 L 721.90 553.20 L 716.80 541.40 L 712.10 529.40 L 699.60 535.80 L 701.00 544.30 L 702.80 552.60 L 705.10 560.80 L 707.80 568.90 L 710.90 576.90 L 716.10 588.10 L 719.50 593.20 L 723.10 596.30 L 726.00 597.60 L 728.80 598.30 L 731.80 598.40 L 737.90 597.30 L 745.50 594.10 L 776.40 576.40 L 778.30 575.10 L 780.10 573.50 L 781.50 570.50 L 784.90 550.80 L 786.60 542.60 L 789.00 533.80" fill="#ffcdab" fill-rule="nonzero" group-id="1" node-id="243" stroke="none" target-height="69" target-width="89.400024" target-x="699.6" target-y="529.4"></path><path d="M 791.10 531.00 L 778.50 538.50 L 766.80 547.20 L 756.00 557.20 L 754.40 559.00 L 753.70 561.20 L 754.00 562.80 L 754.70 564.20 L 764.40 583.00 L 764.80 583.80 L 765.50 584.20 L 766.40 584.30 L 777.50 579.80 L 782.50 577.30 L 787.00 574.30 L 789.80 572.00 L 792.30 569.40 L 794.50 566.60 L 796.30 563.60 L 798.70 557.10 L 799.80 552.00 L 800.50 546.80 L 800.70 540.70 L 800.40 538.70 L 799.00 534.90 L 797.70 533.30 L 794.40 531.10 L 792.90 530.60 L 791.60 530.60 L 791.10 531.00" fill="#ffbf00" fill-rule="nonzero" group-id="1" node-id="245" stroke="none" target-height="53.700012" target-width="47" target-x="753.7" target-y="530.6"></path><path d="M 714.20 535.00 L 713.00 530.20 L 712.20 525.00 L 712.10 522.60 L 712.80 517.90 L 712.90 514.60 L 712.40 511.90 L 711.20 511.10 L 710.40 511.80 L 710.10 514.50 L 708.90 519.50 L 707.10 515.80 L 703.40 506.20 L 702.20 505.40 L 701.60 505.30 L 701.00 505.50 L 700.90 506.20 L 703.60 517.10 L 699.70 508.00 L 698.90 507.00 L 698.30 506.80 L 697.70 507.00 L 697.50 507.70 L 697.80 509.60 L 700.50 519.10 L 696.50 510.60 L 695.10 508.80 L 694.20 508.50 L 693.90 508.90 L 693.70 510.20 L 694.10 512.20 L 697.50 521.10 L 694.40 516.00 L 693.10 515.20 L 692.60 515.40 L 692.50 516.40 L 694.50 523.30 L 699.80 537.20 L 701.40 536.50 L 703.20 536.30 L 711.00 536.50 L 712.70 536.00 L 714.20 535.10" fill="#ffcdab" fill-rule="nonzero" group-id="1" node-id="247" stroke="none" target-height="31.900024" target-width="21.700012" target-x="692.5" target-y="505.3"></path><path d="M 747.30 899.80 L 743.80 903.70 L 731.50 911.90 L 727.90 915.20 L 727.50 916.00 L 727.90 917.80 L 729.30 918.90 L 731.10 919.20 L 754.50 915.70 L 755.60 915.20 L 756.50 914.40 L 757.10 913.40 L 757.80 910.90 L 760.80 896.20 L 756.20 897.00 L 751.70 898.20 L 747.30 899.80" fill="#132444" fill-rule="nonzero" group-id="1" node-id="249" stroke="none" target-height="23" target-width="33.299988" target-x="727.5" target-y="896.2"></path><path d="M 763.50 907.90 L 765.40 907.90 L 767.40 893.10 L 768.50 874.20 L 768.90 839.80 L 769.40 828.30 L 770.30 817.00 L 772.60 802.20 L 774.40 794.90 L 776.90 786.60 L 791.00 749.10 L 795.40 735.60 L 799.20 722.10 L 802.50 708.30 L 805.40 694.50 L 807.70 680.60 L 809.50 666.60 L 810.80 652.50 L 800.60 650.00 L 783.70 645.10 L 770.30 639.70 L 761.80 671.70 L 754.70 704.20 L 750.80 726.00 L 747.50 748.00 L 744.70 770.10 L 742.40 792.30 L 740.60 814.50 L 739.20 836.90 L 738.30 859.20 L 737.40 904.00 L 746.00 905.90 L 754.70 907.20 L 763.50 908.00" fill="#5d81ec" fill-rule="nonzero" group-id="1" node-id="251" stroke="none" target-height="268.3" target-width="73.39996" target-x="737.4" target-y="639.7"></path><g node-id="454"><path d="M 792.40 705.10 L 785.90 717.10 L 783.10 723.50 L 775.80 743.00 L 769.50 762.80 L 765.90 774.60 L 763.00 786.60 L 760.60 798.60 L 758.70 810.70 L 757.30 822.90 L 756.20 835.10 L 755.30 853.40 L 754.90 871.50 L 755.20 907.20 L 765.40 907.90 L 767.40 893.10 L 768.00 885.60 L 768.50 874.20 L 768.90 839.80 L 769.40 828.30 L 770.30 817.00 L 772.60 802.20 L 774.40 794.90 L 776.90 786.60 L 791.20 748.70 L 795.60 734.90 L 799.50 720.90 L 802.90 706.80 L 805.70 692.50 L 803.00 694.00 L 798.10 697.80 L 794.10 702.40 L 792.40 705.10 Z" fill="#5d81ec" fill-opacity="0.4" fill-rule="nonzero" group-id="1,5" node-id="255" stroke="none" target-height="215.40002" target-width="50.799988" target-x="754.9" target-y="692.5"></path></g><path d="M 847.70 917.60 L 844.20 921.50 L 832.00 929.70 L 828.40 933.00 L 828.00 933.80 L 828.30 935.60 L 829.80 936.70 L 831.60 937.00 L 855.00 933.50 L 856.90 932.30 L 857.50 931.20 L 858.20 928.70 L 861.20 914.00 L 856.60 914.80 L 852.10 916.00 L 847.80 917.60" fill="#132444" fill-rule="nonzero" group-id="1" node-id="258" stroke="none" target-height="23" target-width="33.200012" target-x="828" target-y="914"></path><path d="M 785.50 646.20 L 791.10 674.00 L 806.70 757.40 L 808.70 764.50 L 816.30 785.50 L 820.20 798.00 L 827.90 828.60 L 832.00 846.50 L 835.60 864.50 L 838.70 882.60 L 841.90 906.80 L 842.90 919.00 L 848.90 918.00 L 854.80 917.40 L 860.70 917.30 L 866.70 917.70 L 868.70 897.00 L 870.00 876.30 L 870.40 862.40 L 870.40 848.60 L 870.00 834.80 L 868.20 814.20 L 865.00 793.70 L 856.80 757.60 L 855.00 748.50 L 853.70 739.40 L 852.50 722.40 L 851.50 688.30 L 850.70 679.90 L 849.40 671.50 L 848.20 667.30 L 847.10 665.40 L 845.60 664.00 L 841.90 662.10 L 821.80 656.00 L 785.50 646.10" fill="#5d81ec" fill-rule="nonzero" group-id="1" node-id="260" stroke="none" target-height="272.90002" target-width="84.900024" target-x="785.5" target-y="646.1"></path><path d="M 852.90 913.60 L 852.40 913.50 L 855.70 886.70 L 858.00 859.60 L 858.40 841.50 L 857.60 823.40 L 856.60 814.40 L 855.20 805.40 L 853.40 796.60 L 851.20 787.90 L 840.10 748.20 L 836.70 732.30 L 834.40 715.30 L 833.40 702.50 L 832.70 689.70 L 832.10 664.30 L 832.60 664.30 L 833.20 689.70 L 833.90 702.50 L 834.90 715.20 L 837.20 732.20 L 840.50 748.20 L 851.70 787.80 L 853.90 796.50 L 855.70 805.40 L 857.10 814.40 L 858.10 823.40 L 858.90 841.50 L 858.50 859.60 L 856.20 886.70 L 852.90 913.60 Z" fill="#132444" fill-rule="nonzero" group-id="1" node-id="262" stroke="none" target-height="249.29999" target-width="26.800049" target-x="832.1" target-y="664.3"></path><g node-id="455"><path d="M 853.70 739.40 L 852.80 729.50 L 851.60 689.80 L 850.70 680.00 L 848.30 685.90 L 846.30 691.90 L 844.90 697.90 L 843.80 703.90 L 843.20 710.00 L 843.10 722.70 L 843.70 729.30 L 845.20 740.20 L 847.20 750.90 L 856.60 793.60 L 858.50 804.40 L 859.80 815.30 L 861.50 837.90 L 861.90 849.30 L 861.90 860.60 L 861.30 872.00 L 859.20 890.90 L 857.30 899.50 L 856.00 903.80 L 854.30 907.70 L 851.40 912.40 L 847.70 916.00 L 845.40 917.30 L 842.90 918.20 L 842.90 919.00 L 848.80 917.90 L 854.80 917.40 L 860.70 917.30 L 866.70 917.70 L 868.70 897.00 L 870.00 876.20 L 870.40 862.40 L 870.40 848.60 L 869.90 834.80 L 868.20 814.10 L 864.90 793.70 L 856.80 757.60 L 855.00 748.50 L 853.70 739.40 Z" fill="#5d81ec" fill-opacity="0.3" fill-rule="nonzero" group-id="1,6" node-id="266" stroke="none" target-height="239" target-width="27.5" target-x="842.9" target-y="680"></path></g><path d="M 792.60 531.20 L 794.80 530.20 L 799.10 529.20 L 802.40 529.20 L 805.90 529.50 L 835.20 535.20 L 842.80 537.10 L 850.10 539.50 L 854.80 541.50 L 859.30 543.90 L 865.00 547.60 L 867.10 550.20 L 868.00 553.30 L 868.00 559.60 L 867.00 568.50 L 865.60 575.20 L 863.60 581.80 L 854.60 608.00 L 852.80 614.70 L 851.50 621.50 L 850.70 632.00 L 851.00 668.10 L 823.70 660.40 L 796.40 653.00 L 769.00 646.10 L 769.90 634.20 L 771.20 622.40 L 772.90 610.60 L 776.10 593.00 L 779.80 575.50 L 788.20 540.60 L 790.40 534.50 L 791.20 533.00 L 792.70 531.20" fill="#ffbf00" fill-rule="nonzero" group-id="1" node-id="269" stroke="none" target-height="138.89996" target-width="99" target-x="769" target-y="529.2"></path><path d="M 868.00 555.00 L 867.70 551.70 L 866.20 548.80 L 865.10 547.70 L 859.60 544.10 L 855.20 548.10 L 851.10 552.40 L 847.90 556.60 L 845.10 561.20 L 840.80 570.90 L 836.40 584.60 L 830.80 605.50 L 827.60 615.50 L 826.20 618.50 L 824.50 621.40 L 822.90 623.30 L 820.90 624.60 L 818.70 625.50 L 816.30 625.70 L 813.70 625.30 L 811.30 624.30 L 807.10 621.40 L 799.10 613.90 L 788.60 601.30 L 786.20 596.60 L 784.50 591.10 L 783.70 585.30 L 783.50 579.20 L 784.50 565.30 L 785.50 557.60 L 788.00 544.80 L 790.80 536.60 L 794.10 530.60 L 792.00 531.80 L 789.50 536.50 L 788.20 540.70 L 779.80 575.50 L 776.10 593.00 L 772.90 610.60 L 771.20 622.40 L 769.90 634.20 L 768.90 646.10 L 796.40 653.00 L 823.70 660.30 L 850.90 668.20 L 850.70 632.00 L 851.50 621.50 L 852.80 614.80 L 854.50 608.10 L 863.60 581.80 L 865.50 575.20 L 867.70 564.10 L 868.00 555.00" fill="#ffa607" fill-rule="nonzero" group-id="1" node-id="271" stroke="none" target-height="137.60004" target-width="99.099976" target-x="768.9" target-y="530.6"></path><path d="M 816.70 615.00 L 809.30 608.30 L 806.50 605.10 L 804.10 601.60 L 802.30 598.20 L 800.90 594.80 L 799.60 589.10 L 798.10 577.10 L 796.60 571.00 L 797.00 570.80 L 798.00 573.90 L 798.60 577.00 L 800.10 589.00 L 801.40 594.60 L 802.70 598.00 L 804.60 601.30 L 807.00 604.80 L 809.70 607.90 L 817.10 614.60 Z" fill="#26395e" fill-rule="nonzero" group-id="1" node-id="273" stroke="none" target-height="44.200012" target-width="20.5" target-x="796.6" target-y="570.8"></path><path d="M 821.70 594.30 L 819.20 592.30 L 816.80 589.90 L 814.60 587.10 L 812.80 584.00 L 811.20 580.60 L 809.90 576.80 L 808.70 571.50 L 808.00 566.20 L 807.40 555.50 L 807.90 555.50 L 808.50 566.10 L 809.20 571.40 L 810.40 576.70 L 811.70 580.40 L 815.00 586.80 L 817.20 589.60 L 819.50 592.00 L 822.00 593.90 Z" fill="#26395e" fill-rule="nonzero" group-id="1" node-id="275" stroke="none" target-height="38.799988" target-width="14.599976" target-x="807.4" target-y="555.5"></path><path d="M 809.30 666.70 L 810.30 669.10 L 810.80 671.50 L 810.80 674.10 L 810.20 676.60 L 809.20 679.00 L 807.80 681.10 L 806.00 682.80 L 803.90 684.30 L 801.50 685.20 L 799.00 685.70 L 796.50 685.70 L 793.90 685.20 L 791.60 684.20 L 789.50 682.70 L 787.70 680.90 L 786.30 678.80 L 695.10 505.70 L 694.20 503.30 L 693.70 500.80 L 693.70 498.30 L 694.20 495.80 L 695.20 493.40 L 696.60 491.30 L 698.40 489.50 L 700.60 488.10 L 702.90 487.20 L 705.40 486.70 L 708.00 486.70 L 710.50 487.20 L 712.90 488.20 L 715.00 489.60 L 716.70 491.40 L 718.20 493.60 Z" fill="#26395e" fill-rule="nonzero" group-id="1" node-id="277" stroke="none" target-height="199" target-width="117.099976" target-x="693.7" target-y="486.7"></path><path d="M 701.40 540.20 L 779.40 688.00 L 781.10 690.20 L 785.10 694.00 L 789.90 696.60 L 795.10 698.20 L 798.00 698.50 L 803.50 698.10 L 806.20 697.40 L 811.20 695.10 L 815.50 691.80 L 817.30 689.70 L 819.00 687.40 L 821.40 682.30 L 822.10 679.70 L 822.50 674.20 L 821.70 668.80 L 820.80 666.20 L 743.00 518.20 Z" fill="#2d4c7f" fill-rule="nonzero" group-id="1" node-id="279" stroke="none" target-height="180.29999" target-width="121.099976" target-x="701.4" target-y="518.2"></path><g node-id="456"><path d="M 821.90 675.50 L 818.90 676.80 L 815.90 677.70 L 812.90 678.10 L 806.90 677.90 L 801.10 676.10 L 798.50 674.70 L 796.00 672.90 L 793.70 670.80 L 791.80 668.40 L 790.10 665.70 L 719.10 530.90 L 701.40 540.20 L 778.00 685.60 L 779.90 688.60 L 782.10 691.20 L 784.70 693.40 L 787.50 695.30 L 790.60 696.70 L 793.80 697.60 L 797.20 698.10 L 800.60 698.10 L 804.20 697.50 L 807.60 696.50 L 810.60 695.00 L 813.40 693.00 L 815.90 690.70 L 818.10 688.20 L 819.80 685.20 L 821.10 682.10 L 822.00 678.80 L 822.30 675.20 Z" fill="#0093cc" fill-opacity="0.3" fill-rule="nonzero" group-id="1,7" node-id="283" stroke="none" target-height="167.19995" target-width="120.89996" target-x="701.4" target-y="530.9"></path></g><path d="M 754.80 393.80 L 758.30 400.30 L 761.10 406.90 L 763.30 413.60 L 765.00 420.40 L 766.20 427.30 L 766.80 434.20 L 766.80 441.10 L 766.30 447.90 L 765.30 454.70 L 763.80 461.40 L 761.80 467.90 L 759.30 474.30 L 756.30 480.40 L 752.90 486.40 L 748.90 492.00 L 744.50 497.50 L 739.70 502.50 L 734.40 507.20 L 728.60 511.50 L 722.40 515.50 L 715.80 519.00 L 709.20 521.80 L 702.50 524.00 L 695.80 525.70 L 688.80 526.90 L 681.90 527.50 L 675.10 527.50 L 668.20 527.00 L 661.40 526.00 L 654.80 524.50 L 648.30 522.50 L 641.90 520.00 L 635.70 517.00 L 629.80 513.60 L 624.10 509.60 L 618.70 505.20 L 613.60 500.40 L 608.90 495.10 L 604.60 489.30 L 600.60 483.10 L 597.20 476.50 L 594.40 469.90 L 592.10 463.20 L 590.40 456.40 L 589.30 449.50 L 588.70 442.60 L 588.60 435.80 L 589.10 428.90 L 590.10 422.10 L 591.60 415.50 L 593.60 409.00 L 596.10 402.60 L 599.10 396.40 L 602.60 390.50 L 606.50 384.80 L 611.00 379.40 L 615.80 374.30 L 621.10 369.60 L 626.80 365.30 L 633.10 361.30 L 638.30 358.50 L 649.00 354.10 L 654.60 352.40 L 666.00 350.10 L 677.50 349.30 L 683.30 349.50 L 694.90 351.00 L 700.70 352.30 L 706.30 354.00 L 717.10 358.50 L 722.20 361.20 L 731.90 367.60 L 740.60 375.30 L 744.60 379.50 L 751.70 388.70 L 754.80 393.80 Z" fill="#ffffff" fill-rule="nonzero" group-id="1" node-id="286" stroke="none" target-height="178.20001" target-width="178.20001" target-x="588.6" target-y="349.3"></path><path d="M 744.00 400.00 L 747.00 405.60 L 749.40 411.30 L 751.30 417.10 L 752.80 422.90 L 753.70 428.90 L 754.30 434.80 L 754.30 440.70 L 753.90 446.50 L 753.00 452.40 L 751.70 458.10 L 750.00 463.70 L 747.90 469.20 L 745.30 474.50 L 742.30 479.60 L 738.90 484.50 L 735.10 489.20 L 731.00 493.50 L 726.40 497.50 L 721.50 501.20 L 716.10 504.70 L 710.50 507.60 L 704.80 510.10 L 699.10 512.00 L 693.20 513.40 L 687.30 514.40 L 681.40 514.90 L 675.50 515.00 L 669.60 514.60 L 663.70 513.70 L 658.00 512.40 L 652.40 510.70 L 646.90 508.50 L 641.60 506.00 L 636.50 503.00 L 631.70 499.60 L 627.00 495.80 L 622.60 491.60 L 618.60 487.10 L 614.90 482.20 L 611.50 476.80 L 608.50 471.20 L 606.10 465.50 L 604.10 459.70 L 602.70 453.90 L 601.70 447.90 L 601.20 442.00 L 601.20 436.10 L 601.60 430.30 L 602.40 424.40 L 603.70 418.70 L 605.40 413.10 L 607.60 407.60 L 610.20 402.30 L 613.10 397.20 L 616.50 392.30 L 620.30 387.60 L 624.50 383.30 L 629.00 379.30 L 634.00 375.60 L 639.30 372.10 L 645.30 369.00 L 651.50 366.40 L 657.80 364.40 L 664.30 363.00 L 670.90 362.10 L 677.60 361.80 L 684.20 362.10 L 690.80 362.90 L 697.40 364.40 L 703.90 366.40 L 710.10 369.00 L 716.00 372.00 L 721.60 375.60 L 726.80 379.60 L 731.80 384.10 L 736.30 389.00 L 740.30 394.30 L 744.00 400.00 Z" fill="#2d4c7f" fill-rule="nonzero" group-id="1" node-id="288" stroke="none" target-height="153.20001" target-width="153.09998" target-x="601.2" target-y="361.8"></path><path d="M 739.50 402.40 L 742.30 407.70 L 744.50 413.00 L 746.30 418.40 L 747.70 423.80 L 748.60 429.40 L 749.10 434.90 L 749.10 440.50 L 748.70 446.00 L 747.90 451.40 L 746.70 456.80 L 745.10 462.00 L 743.10 467.20 L 740.70 472.10 L 737.90 476.90 L 734.70 481.50 L 731.20 485.80 L 727.30 489.90 L 723.00 493.70 L 718.40 497.20 L 713.40 500.40 L 708.10 503.10 L 702.80 505.40 L 697.40 507.20 L 692.00 508.60 L 686.40 509.50 L 680.90 510.00 L 675.30 510.00 L 669.80 509.60 L 664.40 508.80 L 659.00 507.60 L 653.80 506.00 L 648.60 504.00 L 643.70 501.60 L 638.90 498.80 L 634.30 495.60 L 630.00 492.00 L 625.90 488.20 L 622.10 483.90 L 618.60 479.30 L 615.40 474.30 L 612.70 469.00 L 610.40 463.70 L 608.60 458.30 L 607.20 452.80 L 606.30 447.30 L 605.80 441.70 L 605.80 436.20 L 606.20 430.70 L 607.00 425.20 L 608.20 419.90 L 609.80 414.70 L 611.80 409.50 L 614.20 404.50 L 617.00 399.80 L 620.20 395.20 L 623.70 390.80 L 627.60 386.80 L 631.90 383.00 L 636.50 379.50 L 641.50 376.30 L 647.10 373.40 L 652.90 371.00 L 658.80 369.10 L 664.90 367.70 L 671.10 366.90 L 677.30 366.60 L 683.50 366.90 L 689.70 367.70 L 695.90 369.10 L 702.00 371.00 L 707.70 373.30 L 713.30 376.20 L 718.50 379.60 L 723.40 383.30 L 728.00 387.50 L 732.30 392.10 L 736.10 397.10 L 739.50 402.40 Z" fill="#b8d0ff" fill-rule="nonzero" group-id="1" node-id="290" stroke="none" target-height="143.4" target-width="143.29999" target-x="605.8" target-y="366.6"></path><g node-id="457"><path d="M 626.50 411.90 L 623.80 407.00 L 619.20 396.70 L 616.20 401.20 L 611.40 410.70 L 608.00 420.70 L 606.20 430.90 L 605.80 441.30 L 606.20 446.50 L 608.10 456.80 L 611.50 466.80 L 613.80 471.60 L 616.50 476.30 L 622.80 485.10 L 626.40 489.00 L 634.30 495.90 L 643.00 501.60 L 652.40 505.90 L 662.40 508.90 L 667.60 509.80 L 678.10 510.50 L 683.40 510.30 L 688.80 509.70 L 694.20 508.60 L 699.40 507.20 L 709.10 503.40 L 713.80 500.90 L 722.40 495.00 L 730.10 488.00 L 733.50 484.10 L 739.50 475.50 L 742.10 470.90 L 746.10 461.10 L 747.60 455.90 L 741.20 458.60 L 734.70 460.80 L 728.20 462.30 L 721.50 463.40 L 714.70 463.80 L 708.00 463.80 L 701.30 463.20 L 694.50 462.10 L 687.80 460.50 L 681.30 458.40 L 674.80 455.80 L 668.40 452.70 L 662.30 449.20 L 656.40 445.20 L 650.70 440.70 L 645.20 435.80 L 640.00 430.50 L 635.20 424.80 L 630.70 418.60 L 626.50 411.90 Z" fill="#ffffff" fill-opacity="0.4" fill-rule="nonzero" group-id="1,8" node-id="294" stroke="none" target-height="113.79999" target-width="141.79999" target-x="605.8" target-y="396.7"></path></g><path d="M 639.90 440.60 L 643.20 441.40 L 644.70 442.00 L 645.80 443.00 L 646.60 444.30 L 647.00 445.80 L 647.80 452.10 L 647.40 453.50 L 646.50 454.80 L 642.40 457.40 L 640.80 459.00 L 640.20 461.30 L 640.80 463.50 L 646.40 472.70 L 648.10 474.30 L 650.30 474.90 L 651.50 474.80 L 655.50 472.60 L 657.00 472.10 L 658.50 472.00 L 660.00 472.30 L 661.40 473.10 L 666.40 477.10 L 667.20 478.40 L 667.50 479.80 L 666.50 484.60 L 666.60 486.90 L 667.10 488.00 L 668.70 489.60 L 681.60 492.90 L 682.70 492.70 L 684.70 491.60 L 685.90 489.50 L 687.40 484.90 L 688.40 483.80 L 689.70 483.00 L 696.10 482.00 L 697.70 481.90 L 699.10 482.30 L 700.40 483.10 L 701.50 484.30 L 704.00 488.10 L 704.90 488.80 L 707.10 489.40 L 709.40 488.80 L 718.80 483.40 L 720.50 481.80 L 721.00 479.50 L 720.40 477.30 L 718.10 473.00 L 718.00 471.50 L 718.30 470.00 L 722.10 464.90 L 723.20 463.80 L 724.50 463.10 L 726.00 462.80 L 727.60 462.90 L 732.10 463.90 L 733.20 463.70 L 735.20 462.60 L 736.40 460.60 L 739.20 449.10 L 738.60 446.90 L 737.90 445.90 L 735.80 444.80 L 731.10 443.40 L 729.90 442.40 L 729.10 441.10 L 728.10 434.90 L 728.00 433.30 L 728.40 431.90 L 729.20 430.60 L 730.50 429.60 L 734.30 427.20 L 735.50 425.30 L 735.60 424.10 L 735.00 421.90 L 729.40 412.70 L 727.70 411.00 L 725.50 410.50 L 723.20 411.10 L 718.80 413.30 L 717.20 413.40 L 715.70 413.10 L 714.40 412.30 L 710.50 409.40 L 709.30 408.30 L 708.60 407.00 L 708.20 405.60 L 709.20 400.80 L 709.20 398.50 L 708.70 397.40 L 707.00 395.80 L 694.20 392.50 L 693.00 392.70 L 691.00 393.80 L 689.80 395.90 L 688.40 400.50 L 687.30 401.60 L 686.00 402.40 L 679.70 403.40 L 678.10 403.50 L 676.60 403.10 L 675.30 402.30 L 674.30 401.00 L 671.80 397.20 L 670.90 396.60 L 668.60 396.00 L 666.30 396.60 L 657.00 402.00 L 655.40 403.60 L 654.80 405.90 L 655.40 408.10 L 657.70 412.40 L 657.80 413.90 L 657.50 415.40 L 656.60 416.70 L 653.70 420.50 L 652.60 421.60 L 651.30 422.30 L 649.80 422.60 L 645.00 421.60 L 642.60 421.60 L 640.60 422.80 L 639.90 423.70 L 636.60 436.30 L 637.20 438.50 L 638.80 440.10 L 639.90 440.60 Z M 663.40 438.50 L 664.40 434.90 L 665.80 431.60 L 667.60 428.60 L 669.80 426.00 L 672.40 423.70 L 675.20 421.80 L 678.30 420.30 L 681.60 419.20 L 685.10 418.60 L 688.70 418.50 L 692.30 418.90 L 696.00 419.80 L 699.60 421.40 L 702.80 423.40 L 705.70 425.90 L 708.10 428.80 L 710.00 432.00 L 711.50 435.50 L 712.40 439.10 L 712.60 442.90 L 712.30 446.90 L 711.40 450.50 L 710.00 453.80 L 708.20 456.70 L 705.90 459.40 L 703.40 461.70 L 700.50 463.60 L 697.40 465.10 L 694.10 466.20 L 690.60 466.80 L 687.10 466.90 L 683.50 466.50 L 679.80 465.50 L 676.10 464.00 L 672.90 462.00 L 670.10 459.50 L 667.70 456.60 L 665.70 453.40 L 664.30 449.90 L 663.40 446.20 L 663.10 442.40 L 663.40 438.50 Z" fill="#203c79" fill-rule="nonzero" group-id="1" node-id="297" stroke="none" target-height="100.399994" target-width="102.60004" target-x="636.6" target-y="392.5"></path><path d="M 616.80 433.20 L 619.70 433.90 L 620.90 434.40 L 621.90 435.30 L 622.90 437.70 L 623.60 443.10 L 622.50 445.40 L 617.90 448.60 L 617.20 450.00 L 617.10 451.50 L 617.60 452.90 L 622.40 460.80 L 623.50 462.00 L 624.80 462.60 L 626.30 462.70 L 630.30 460.80 L 632.90 460.20 L 635.30 461.20 L 639.60 464.60 L 640.60 467.00 L 639.70 472.60 L 640.20 474.00 L 641.20 475.10 L 642.60 475.70 L 651.70 478.10 L 653.20 478.20 L 654.60 477.70 L 655.70 476.70 L 657.70 471.30 L 658.60 470.30 L 659.70 469.70 L 665.20 468.80 L 666.50 468.80 L 667.80 469.10 L 668.90 469.80 L 669.80 470.80 L 671.30 473.30 L 672.30 474.40 L 673.70 475.00 L 675.20 475.10 L 676.70 474.60 L 684.70 470.00 L 685.90 469.00 L 686.50 467.70 L 686.60 466.20 L 684.10 461.10 L 684.00 459.80 L 684.30 458.50 L 687.60 454.10 L 688.50 453.10 L 689.70 452.50 L 690.90 452.20 L 696.70 453.20 L 698.10 452.70 L 699.20 451.70 L 699.90 450.30 L 702.20 441.50 L 702.30 440.00 L 701.80 438.50 L 700.80 437.40 L 695.30 435.50 L 693.60 433.60 L 693.30 432.30 L 692.70 428.20 L 692.60 426.90 L 693.00 425.60 L 693.70 424.50 L 698.40 421.30 L 699.10 419.90 L 699.20 418.40 L 698.60 417.00 L 693.90 409.10 L 692.80 408.00 L 691.50 407.30 L 690.00 407.20 L 688.50 407.70 L 686.00 409.20 L 683.40 409.80 L 682.20 409.50 L 681.00 408.80 L 676.60 405.40 L 675.70 403.00 L 676.60 397.40 L 676.10 396.00 L 675.10 394.90 L 673.70 394.20 L 664.60 391.90 L 663.10 391.80 L 661.70 392.30 L 660.60 393.30 L 658.60 398.60 L 656.60 400.30 L 651.10 401.20 L 648.50 400.90 L 647.40 400.20 L 646.50 399.20 L 645.00 396.70 L 643.90 395.60 L 642.60 394.90 L 641.10 394.80 L 639.60 395.30 L 631.60 400.00 L 630.40 400.90 L 629.80 402.30 L 629.70 403.80 L 632.20 408.90 L 631.90 411.50 L 631.20 412.60 L 628.70 415.90 L 627.80 416.80 L 626.60 417.50 L 625.30 417.70 L 619.60 416.80 L 618.20 417.30 L 617.10 418.20 L 616.40 419.60 L 614.00 428.50 L 613.90 430.00 L 614.40 431.40 L 615.50 432.50 L 616.80 433.20 Z" fill="#5d81ec" fill-rule="nonzero" group-id="1" node-id="299" stroke="none" target-height="86.400024" target-width="88.39996" target-x="613.9" target-y="391.8"></path><path d="M 635.10 433.90 L 636.70 434.30 L 637.90 435.10 L 638.50 436.50 L 638.90 439.50 L 638.30 440.80 L 635.60 442.60 L 635.30 443.30 L 635.50 445.00 L 638.70 450.00 L 640.30 450.40 L 642.50 449.30 L 644.00 449.00 L 645.40 449.60 L 647.80 451.50 L 648.30 452.80 L 647.80 455.90 L 648.60 457.30 L 655.30 459.00 L 656.70 458.20 L 657.80 455.20 L 659.00 454.30 L 662.00 453.90 L 663.50 454.00 L 664.10 454.40 L 666.00 457.00 L 667.60 457.40 L 672.90 454.50 L 673.50 454.00 L 674.00 452.40 L 672.60 449.60 L 672.70 448.10 L 674.50 445.70 L 675.70 444.80 L 677.10 444.70 L 679.60 445.10 L 681.00 444.30 L 682.70 437.80 L 681.90 436.40 L 678.80 435.30 L 678.30 434.80 L 677.70 433.50 L 677.40 431.20 L 677.50 429.80 L 677.90 429.20 L 680.60 427.40 L 680.90 426.60 L 680.70 425.00 L 677.50 419.90 L 675.90 419.50 L 672.90 420.90 L 672.20 420.90 L 670.80 420.40 L 668.40 418.50 L 667.90 417.20 L 668.50 414.00 L 667.60 412.60 L 660.90 410.90 L 659.50 411.70 L 658.40 414.70 L 657.30 415.70 L 654.20 416.10 L 652.70 416.00 L 652.10 415.60 L 650.20 413.00 L 648.60 412.60 L 643.30 415.40 L 642.30 416.70 L 642.20 417.60 L 643.60 420.40 L 643.70 421.10 L 643.50 421.80 L 641.70 424.30 L 641.20 424.90 L 639.80 425.40 L 636.60 424.80 L 635.20 425.60 L 634.80 426.40 L 633.50 432.20 L 634.30 433.60 L 635.10 433.90 Z M 646.40 432.90 L 647.10 430.50 L 648.40 428.30 L 650.10 426.40 L 652.10 424.90 L 654.50 423.90 L 657.00 423.40 L 659.50 423.40 L 663.80 424.80 L 666.70 426.90 L 668.30 429.10 L 669.40 431.50 L 670.00 435.10 L 669.80 437.00 L 669.10 439.50 L 667.80 441.70 L 666.20 443.60 L 664.10 445.10 L 661.70 446.10 L 659.30 446.60 L 656.70 446.60 L 654.20 446.00 L 650.90 444.30 L 649.60 443.10 L 647.90 440.90 L 646.80 438.50 L 646.40 436.70 L 646.40 433.00 Z" fill="#ffffff" fill-rule="nonzero" group-id="1" node-id="301" stroke="none" target-height="48.100006" target-width="49.200012" target-x="633.5" target-y="410.9"></path><path d="M 861.70 555.30 L 858.40 557.60 L 855.60 560.20 L 853.20 563.00 L 849.50 569.50 L 848.00 573.00 L 845.00 583.80 L 842.90 594.00 L 841.40 604.30 L 839.90 617.90 L 838.70 620.80 L 837.60 622.10 L 834.50 623.90 L 831.70 624.60 L 828.70 624.80 L 815.30 624.50 L 794.10 626.60 L 786.80 627.00 L 779.40 626.90 L 780.70 629.80 L 781.60 632.80 L 781.90 636.00 L 781.80 639.20 L 802.20 642.40 L 812.50 643.60 L 822.80 644.30 L 836.40 644.10 L 843.20 643.50 L 851.60 642.00 L 855.60 640.60 L 859.30 638.90 L 862.60 636.60 L 865.30 634.10 L 867.60 631.20 L 869.50 628.10 L 872.40 621.30 L 874.00 615.90 L 876.80 599.00 L 878.00 587.50 L 878.70 575.90 L 878.60 570.40 L 877.70 565.00 L 876.60 562.50 L 875.10 560.20 L 873.10 558.20 L 870.60 556.60 L 867.90 555.60 L 865.40 555.00 L 863.00 554.90 L 861.70 555.30" fill="#ffcdab" fill-rule="nonzero" group-id="1" node-id="303" stroke="none" target-height="89.39996" target-width="99.29999" target-x="779.4" target-y="554.9"></path><path d="M 864.40 547.20 L 860.60 548.70 L 856.80 551.90 L 853.10 556.90 L 848.30 566.60 L 845.60 573.70 L 843.40 581.00 L 841.80 588.50 L 840.70 596.10 L 840.30 603.80 L 852.10 603.60 L 864.00 603.90 L 875.80 604.80 L 878.80 591.10 L 881.10 577.30 L 881.90 569.90 L 881.70 566.20 L 881.00 562.60 L 879.80 559.60 L 878.30 556.90 L 874.50 552.10 L 872.50 550.20 L 868.20 547.70 L 866.10 547.20 L 864.40 547.30" fill="#ffbf00" fill-rule="nonzero" group-id="1" node-id="305" stroke="none" target-height="57.599976" target-width="41.600037" target-x="840.3" target-y="547.2"></path><path d="M 782.20 627.00 L 778.10 626.60 L 774.90 625.80 L 769.20 623.00 L 765.90 621.90 L 763.00 621.50 L 761.70 622.10 L 761.70 622.60 L 762.10 623.00 L 764.70 624.20 L 769.40 626.90 L 762.60 627.20 L 754.90 626.90 L 753.70 627.10 L 752.00 628.30 L 752.10 628.80 L 752.70 629.20 L 754.70 629.50 L 764.80 630.50 L 754.00 630.80 L 752.70 631.10 L 752.30 631.60 L 752.30 632.10 L 752.70 632.40 L 753.90 632.70 L 765.60 633.70 L 755.40 634.40 L 752.60 635.20 L 752.40 635.60 L 752.70 636.00 L 753.90 636.50 L 756.00 636.80 L 766.40 637.00 L 760.00 637.90 L 758.70 638.70 L 758.70 639.20 L 759.10 639.50 L 767.60 640.00 L 784.10 639.60 L 783.40 631.20 L 782.20 627.10" fill="#ffcdab" fill-rule="nonzero" group-id="1" node-id="307" stroke="none" target-height="18.5" target-width="32.099976" target-x="752" target-y="621.5"></path><path d="M 823.80 523.00 L 823.10 526.90 L 821.90 530.70 L 820.30 534.30 L 818.20 537.80 L 821.80 540.10 L 827.20 541.30 L 833.90 541.40 L 837.10 540.90 L 837.80 540.60 L 838.00 539.90 L 842.50 511.70 L 838.00 511.90 L 831.10 511.50 L 827.60 512.10 L 826.70 513.30 L 825.50 516.50 L 823.80 523.00" fill="#ffcdab" fill-rule="nonzero" group-id="1" node-id="309" stroke="none" target-height="29.900024" target-width="24.299988" target-x="818.2" target-y="511.5"></path><path d="M 835.50 526.10 L 837.10 524.00 L 838.40 521.60 L 842.50 511.70 L 837.90 512.00 L 831.10 511.60 L 828.20 511.80 L 827.60 512.10 L 826.70 513.40 L 824.50 519.70 L 822.90 527.30 L 821.50 531.50 L 824.10 531.40 L 829.10 530.30 L 833.50 527.80 L 835.40 526.10" fill="#f4bd98" fill-rule="nonzero" group-id="1" node-id="311" stroke="none" target-height="19.899994" target-width="21" target-x="821.5" target-y="511.6"></path><path d="M 821.90 498.30 L 818.50 507.80 L 815.40 514.20 L 814.30 518.50 L 814.50 520.70 L 815.20 522.40 L 816.20 523.90 L 819.20 526.20 L 822.90 527.30 L 825.80 527.20 L 828.60 526.60 L 831.20 525.60 L 836.60 521.90 L 839.10 519.40 L 841.20 516.50 L 843.00 513.40 L 844.20 510.00 L 845.20 504.80 L 845.10 503.10 L 844.60 501.50 L 843.20 499.70 L 840.50 497.50 L 837.50 495.70 L 834.30 494.40 L 831.60 493.90 L 829.10 493.90 L 826.60 494.50 L 824.60 495.50 L 822.80 496.90 L 821.80 498.30" fill="#ffcdab" fill-rule="nonzero" group-id="1" node-id="313" stroke="none" target-height="33.399994" target-width="30.900024" target-x="814.3" target-y="493.9"></path><path d="M 830.50 489.90 L 828.30 490.30 L 826.40 491.20 L 824.70 492.40 L 823.20 493.90 L 822.10 495.70 L 821.30 498.30 L 821.70 499.00 L 824.70 498.40 L 825.20 498.80 L 826.60 501.80 L 827.70 502.60 L 830.20 503.40 L 833.70 503.40 L 835.40 503.00 L 838.50 501.30 L 840.30 501.20 L 841.10 501.50 L 841.90 502.80 L 841.70 506.40 L 842.70 507.40 L 844.10 507.80 L 845.50 507.70 L 847.90 506.40 L 848.80 505.30 L 849.50 503.60 L 849.80 501.90 L 849.10 498.20 L 848.30 496.50 L 847.10 495.00 L 845.40 493.50 L 841.30 491.50 L 837.90 490.60 L 831.80 489.60 L 830.50 489.90" fill="#141d30" fill-rule="nonzero" group-id="1" node-id="315" stroke="none" target-height="18.199982" target-width="28.5" target-x="821.3" target-y="489.6"></path><path d="M 835.10 490.10 L 820.30 486.20 L 818.40 486.10 L 815.30 487.30 L 812.80 489.90 L 811.90 491.50 L 811.10 495.00 L 811.20 496.80 L 811.70 498.70 L 812.60 500.40 L 813.90 501.90 L 816.20 503.00 L 817.50 503.10 L 820.00 502.20 L 824.70 499.10 L 825.50 498.80 L 826.40 498.90 L 828.10 500.20 L 829.10 500.50 L 830.30 500.50 L 831.80 499.90 L 833.10 498.90 L 834.90 496.30 L 835.60 493.20 L 835.10 490.10" fill="#141d30" fill-rule="nonzero" group-id="1" node-id="317" stroke="none" target-height="17" target-width="24.5" target-x="811.1" target-y="486.1"></path><path d="M 840.50 499.80 L 840.70 502.60 L 840.60 505.40 L 839.70 509.30 L 841.60 516.30 L 844.80 513.90 L 847.50 509.80 L 849.50 503.60 L 849.50 502.20 L 849.00 501.00 L 848.00 499.80 L 845.10 498.60 L 842.40 498.50 L 841.50 498.70 L 840.50 499.80" fill="#141d30" fill-rule="nonzero" group-id="1" node-id="319" stroke="none" target-height="17.799988" target-width="9.799988" target-x="839.7" target-y="498.5"></path><path d="M 839.70 509.80 L 840.70 508.80 L 843.20 507.90 L 844.60 508.00 L 845.50 508.50 L 845.90 509.10 L 845.90 510.10 L 845.20 511.60 L 843.80 513.30 L 841.10 515.00 L 839.30 515.40 L 838.20 515.40 L 837.30 514.80 L 837.20 513.90 L 838.50 511.00 L 839.80 509.80" fill="#ffcdab" fill-rule="nonzero" group-id="1" node-id="321" stroke="none" target-height="7.5000305" target-width="8.700012" target-x="837.2" target-y="507.9"></path><path d="M 275.30 927.80 L 275.00 929.30 L 274.20 930.80 L 272.70 932.40 L 270.50 934.00 L 267.30 935.70 L 263.00 937.40 L 257.50 939.10 L 245.50 941.50 L 238.20 942.50 L 223.00 943.60 L 214.60 943.70 L 206.10 943.60 L 190.90 942.50 L 183.60 941.50 L 171.60 939.10 L 166.10 937.40 L 161.80 935.70 L 158.60 934.00 L 156.40 932.40 L 154.90 930.80 L 154.10 929.30 L 153.90 927.80 L 154.10 926.30 L 154.90 924.80 L 156.40 923.30 L 158.60 921.60 L 161.80 919.90 L 166.10 918.20 L 171.60 916.60 L 183.60 914.20 L 190.90 913.20 L 206.10 912.10 L 214.60 911.90 L 223.00 912.10 L 238.20 913.20 L 245.50 914.20 L 257.50 916.60 L 263.00 918.20 L 267.30 919.90 L 270.50 921.60 L 272.70 923.30 L 274.20 924.80 L 275.00 926.30 L 275.30 927.80 Z" fill="#b8d0ff" fill-rule="nonzero" group-id="1" node-id="323" stroke="none" target-height="31.799988" target-width="121.399994" target-x="153.9" target-y="911.9"></path><path d="M 225.90 506.30 L 223.60 504.80 L 221.10 503.90 L 218.40 503.60 L 215.80 503.90 L 213.20 504.70 L 210.90 506.20 L 209.00 508.20 L 207.50 510.60 L 204.00 518.50 L 201.10 523.30 L 199.10 525.10 L 195.40 526.90 L 190.30 527.40 L 173.70 524.60 L 170.60 524.60 L 167.60 524.90 L 164.70 525.70 L 161.90 526.80 L 159.20 528.30 L 156.80 530.20 L 154.70 532.40 L 153.00 534.90 L 151.80 537.60 L 150.90 540.50 L 150.60 543.50 L 150.70 546.60 L 151.40 549.40 L 153.80 557.80 L 154.00 561.40 L 153.20 564.80 L 150.90 569.30 L 150.20 571.50 L 149.70 573.70 L 149.90 578.10 L 151.20 582.30 L 153.70 586.10 L 157.30 589.00 L 161.40 590.80 L 165.80 591.30 L 170.10 590.50 L 174.30 588.50 L 180.20 583.90 L 182.40 582.90 L 184.20 582.50 L 186.10 582.40 L 193.70 583.40 L 196.40 583.40 L 201.60 582.40 L 206.40 580.10 L 208.60 578.50 L 212.50 574.70 L 214.10 572.60 L 215.90 569.00 L 217.30 565.30 L 218.30 561.40 L 218.70 557.40 L 218.70 553.40 L 217.60 543.90 L 218.00 540.50 L 218.70 538.90 L 219.90 537.60 L 225.60 533.50 L 226.70 532.30 L 228.20 529.20 L 228.20 524.90 L 225.20 513.60 L 224.80 511.00 L 224.80 509.30 L 225.80 506.30" fill="#141d30" fill-rule="nonzero" group-id="1" node-id="325" stroke="none" target-height="87.69998" target-width="78.5" target-x="149.7" target-y="503.6"></path><path d="M 171.80 915.40 L 173.80 917.90 L 176.20 919.90 L 187.80 926.30 L 190.50 928.10 L 193.50 930.90 L 193.90 931.80 L 193.50 933.70 L 192.00 934.90 L 190.00 935.10 L 165.90 931.20 L 163.60 930.50 L 162.00 928.50 L 161.30 925.80 L 159.80 910.70 L 164.00 911.80 L 171.80 915.30" fill="#fa6e61" fill-rule="nonzero" group-id="1" node-id="327" stroke="none" target-height="24.399963" target-width="34.09999" target-x="159.8" target-y="910.7"></path><path d="M 193.90 931.80 L 192.90 930.20 L 191.00 928.50 L 184.30 924.40 L 183.00 925.60 L 181.40 926.50 L 179.60 926.90 L 172.50 926.40 L 167.40 925.30 L 164.90 924.20 L 162.70 922.70 L 160.70 920.90 L 161.30 925.90 L 162.00 928.50 L 162.70 929.70 L 163.60 930.60 L 164.70 931.00 L 190.00 935.20 L 192.00 934.90 L 192.90 934.40 L 193.90 932.80 L 193.90 931.80" fill="#132444" fill-rule="nonzero" group-id="1" node-id="329" stroke="none" target-height="14.299988" target-width="33.199997" target-x="160.7" target-y="920.9"></path><path d="M 194.00 633.10 L 189.60 643.40 L 185.70 653.80 L 182.10 664.30 L 178.90 675.00 L 176.20 685.70 L 173.80 696.60 L 171.90 707.50 L 170.30 718.50 L 169.20 729.60 L 168.50 740.70 L 168.20 751.80 L 168.70 773.40 L 168.50 778.50 L 167.90 783.60 L 166.70 788.40 L 159.70 809.20 L 157.90 816.10 L 155.40 830.20 L 154.40 839.70 L 154.00 849.20 L 154.00 858.90 L 154.40 868.50 L 156.30 887.80 L 160.80 916.60 L 171.70 916.00 L 172.20 907.00 L 173.10 898.10 L 174.40 889.20 L 177.10 876.00 L 180.40 862.80 L 196.00 810.30 L 199.50 797.10 L 202.40 784.00 L 206.30 761.40 L 223.20 642.60 L 215.80 640.90 L 203.60 637.40 L 194.00 633.10" fill="#ffcdab" fill-rule="nonzero" group-id="1" node-id="331" stroke="none" target-height="283.5" target-width="69.2" target-x="154" target-y="633.1"></path><path d="M 166.80 807.60 L 171.40 805.30 L 176.10 803.50 L 184.40 801.30 L 187.80 801.10 L 190.80 801.40 L 193.90 801.90 L 198.00 803.20 L 202.50 784.00 L 206.40 761.50 L 223.20 642.70 L 215.80 641.00 L 203.60 637.40 L 194.00 633.10 L 189.70 643.40 L 185.70 653.80 L 182.10 664.30 L 179.00 675.00 L 176.20 685.80 L 173.80 696.60 L 171.90 707.50 L 170.40 718.50 L 169.20 729.60 L 168.50 740.70 L 168.30 751.80 L 168.70 773.40 L 168.50 778.50 L 167.90 783.60 L 166.70 788.40 L 161.90 802.30 L 158.30 814.30 L 163.70 809.60 L 166.80 807.60" fill="#f4bd98" fill-rule="nonzero" group-id="1" node-id="333" stroke="none" target-height="181.20001" target-width="64.899994" target-x="158.3" target-y="633.1"></path><path d="M 249.00 903.10 L 250.90 905.50 L 253.30 907.60 L 264.40 913.80 L 267.10 915.60 L 270.00 918.50 L 270.40 919.30 L 270.00 921.20 L 268.50 922.40 L 266.60 922.60 L 243.40 918.80 L 241.20 918.10 L 239.60 916.10 L 239.00 913.50 L 237.50 898.50 L 241.60 899.50 L 249.00 903.00" fill="#fa6e61" fill-rule="nonzero" group-id="1" node-id="335" stroke="none" target-height="24.099976" target-width="32.899994" target-x="237.5" target-y="898.5"></path><path d="M 270.30 919.30 L 269.30 917.80 L 266.80 915.50 L 261.00 912.00 L 259.80 913.20 L 258.20 914.00 L 256.50 914.50 L 249.60 914.00 L 244.70 912.90 L 242.30 911.80 L 238.30 908.60 L 238.90 913.50 L 239.50 916.10 L 241.10 918.10 L 242.20 918.60 L 266.50 922.70 L 268.40 922.40 L 269.30 921.90 L 270.30 920.30 L 270.30 919.30" fill="#132444" fill-rule="nonzero" group-id="1" node-id="337" stroke="none" target-height="14.100037" target-width="31.999985" target-x="238.3" target-y="908.6"></path><path d="M 210.60 648.30 L 209.10 658.30 L 208.00 668.40 L 207.40 678.50 L 207.30 688.60 L 207.60 698.70 L 208.40 708.70 L 209.60 718.70 L 211.30 728.60 L 213.40 738.50 L 215.90 748.30 L 218.90 757.90 L 225.30 775.50 L 226.60 779.50 L 227.40 783.60 L 227.60 791.00 L 226.70 806.20 L 226.70 821.60 L 228.40 844.60 L 232.00 872.70 L 236.60 894.00 L 238.20 904.10 L 245.60 903.80 L 249.80 904.20 L 253.00 876.50 L 255.10 853.70 L 257.00 827.40 L 258.10 799.40 L 257.90 771.70 L 257.20 758.30 L 256.00 746.10 L 253.30 726.80 L 250.20 707.60 L 246.70 688.40 L 242.70 669.40 L 237.80 648.70 L 236.70 647.10 L 234.70 646.40 L 210.50 648.30" fill="#ffcdab" fill-rule="nonzero" group-id="1" node-id="339" stroke="none" target-height="257.8" target-width="50.800003" target-x="207.3" target-y="646.4"></path><path d="M 227.40 783.60 L 227.60 791.00 L 226.90 801.30 L 229.60 799.50 L 236.50 795.80 L 243.70 793.60 L 248.50 792.80 L 253.30 792.60 L 258.20 793.00 L 257.80 768.60 L 257.10 756.80 L 256.00 746.00 L 253.40 726.70 L 250.30 707.50 L 246.80 688.40 L 242.80 669.30 L 238.40 650.40 L 237.80 648.60 L 236.80 647.10 L 234.80 646.40 L 210.60 648.20 L 209.10 658.30 L 208.00 668.30 L 207.40 678.40 L 207.30 688.50 L 207.60 698.60 L 208.40 708.60 L 209.60 718.60 L 211.30 728.60 L 213.40 738.40 L 215.90 748.20 L 218.90 757.90 L 225.30 775.40 L 226.60 779.40 L 227.40 783.60" fill="#f4bd98" fill-rule="nonzero" group-id="1" node-id="341" stroke="none" target-height="154.89996" target-width="50.90001" target-x="207.3" target-y="646.4"></path><path d="M 245.70 582.00 L 252.40 605.90 L 258.00 624.10 L 262.10 633.70 L 264.00 637.00 L 266.80 640.50 L 269.90 643.80 L 273.20 646.60 L 276.90 649.20 L 283.60 652.80 L 291.40 655.50 L 305.50 658.40 L 315.90 661.20 L 316.10 657.80 L 317.40 654.70 L 299.40 645.20 L 294.10 641.80 L 288.70 637.90 L 282.00 631.80 L 278.90 628.30 L 276.20 624.60 L 273.70 620.50 L 271.60 616.00 L 270.00 611.40 L 268.80 606.30 L 267.20 587.30 L 266.50 582.10 L 264.90 574.60 L 263.90 571.50 L 257.60 556.40 L 255.00 552.10 L 253.50 550.20 L 251.80 548.70 L 250.40 547.90 L 249.40 547.70 L 248.00 548.10 L 246.60 549.00 L 245.00 550.70 L 243.40 554.10 L 242.70 556.60 L 242.30 562.60 L 242.50 566.80 L 244.10 576.00 L 245.70 582.10" fill="#ffcdab" fill-rule="nonzero" group-id="1" node-id="343" stroke="none" target-height="113.5" target-width="75.09999" target-x="242.3" target-y="547.7"></path><path d="M 307.00 656.60 L 314.20 662.40 L 318.50 664.90 L 319.50 665.10 L 320.30 664.90 L 320.20 664.20 L 317.00 662.30 L 316.00 661.10 L 318.30 662.30 L 320.80 663.10 L 323.40 663.50 L 326.00 663.50 L 325.60 662.50 L 324.80 662.00 L 321.40 661.20 L 318.60 659.60 L 323.10 661.00 L 324.60 661.10 L 327.60 660.50 L 327.40 659.70 L 326.80 659.20 L 323.50 658.70 L 320.10 657.20 L 322.80 657.80 L 325.40 657.90 L 328.20 657.40 L 327.50 656.40 L 321.80 655.00 L 318.10 652.70 L 322.00 649.50 L 322.30 648.10 L 322.10 647.40 L 315.10 650.40 L 312.80 650.90 L 310.40 650.90 L 308.10 650.40 L 307.00 656.50" fill="#ffcdab" fill-rule="nonzero" group-id="1" node-id="345" stroke="none" target-height="17.699951" target-width="21.200012" target-x="307" target-y="647.4"></path><path d="M 250.60 545.40 L 247.70 547.20 L 245.10 549.40 L 242.90 552.10 L 241.30 555.20 L 240.00 559.10 L 239.30 563.30 L 238.70 569.70 L 238.70 576.10 L 239.30 582.40 L 240.40 588.70 L 242.10 594.90 L 244.30 600.90 L 252.40 599.40 L 260.30 597.30 L 268.10 594.60 L 269.60 593.50 L 269.70 592.80 L 267.00 582.00 L 264.00 572.00 L 260.60 562.20 L 256.70 552.50 L 254.90 548.80 L 253.80 547.10 L 252.30 545.70 L 251.30 545.20 L 250.40 545.20 L 250.70 545.40" fill="#ebf3ff" fill-rule="nonzero" group-id="1" node-id="347" stroke="none" target-height="55.700012" target-width="31.000015" target-x="238.7" target-y="545.2"></path><path d="M 218.20 536.80 L 208.90 537.30 L 204.30 538.10 L 200.00 539.40 L 197.30 540.70 L 194.90 542.30 L 192.60 544.30 L 190.80 546.70 L 189.30 549.20 L 188.30 552.00 L 187.30 556.40 L 186.80 561.10 L 187.50 588.10 L 187.30 597.00 L 186.60 605.70 L 185.80 611.50 L 183.20 622.70 L 181.30 628.10 L 179.00 633.30 L 176.10 638.40 L 182.30 640.90 L 195.00 644.60 L 201.40 645.90 L 214.50 647.40 L 227.60 647.30 L 234.20 646.70 L 247.20 644.30 L 253.60 642.50 L 251.60 626.40 L 251.00 618.30 L 251.00 610.30 L 251.90 599.60 L 252.90 594.30 L 257.40 578.10 L 259.30 569.10 L 259.60 562.10 L 259.20 558.70 L 258.30 555.30 L 256.90 552.00 L 253.90 547.80 L 249.00 543.60 L 245.60 541.60 L 242.00 540.00 L 234.40 538.00 L 230.60 537.50 L 218.20 536.80" fill="#ffffff" fill-rule="nonzero" group-id="1" node-id="349" stroke="none" target-height="110.60004" target-width="83.5" target-x="176.1" target-y="536.8"></path><path d="M 219.70 584.70 L 219.60 584.30 L 223.80 582.40 L 227.70 580.20 L 231.30 577.60 L 234.60 574.70 L 237.60 571.40 L 240.30 567.80 L 242.60 564.00 L 244.50 559.90 L 245.90 555.60 L 246.40 555.70 L 244.90 560.10 L 243.00 564.20 L 240.70 568.10 L 238.00 571.70 L 235.00 575.00 L 231.60 578.00 L 227.90 580.60 L 224.00 582.90 L 219.70 584.70 Z" fill="#26395e" fill-rule="nonzero" group-id="1" node-id="351" stroke="none" target-height="29.100037" target-width="26.799988" target-x="219.6" target-y="555.6"></path><path d="M 234.30 587.90 L 234.10 587.50 L 236.90 585.30 L 241.90 580.10 L 245.80 574.10 L 247.40 570.80 L 247.90 571.00 L 246.30 574.30 L 242.30 580.40 L 237.20 585.70 L 234.30 587.90 Z" fill="#26395e" fill-rule="nonzero" group-id="1" node-id="353" stroke="none" target-height="17.100037" target-width="13.799988" target-x="234.1" target-y="570.8"></path><path d="M 184.90 626.50 L 180.00 634.90 L 175.50 643.60 L 171.40 652.40 L 167.70 661.50 L 163.40 673.80 L 159.60 686.30 L 156.40 699.10 L 151.10 725.10 L 146.20 758.10 L 143.70 777.90 L 143.60 779.20 L 144.10 781.90 L 145.30 783.00 L 146.70 783.80 L 154.10 786.90 L 161.50 789.50 L 169.00 791.50 L 176.70 793.10 L 184.40 794.10 L 192.20 794.80 L 200.10 795.10 L 208.10 795.00 L 218.70 794.30 L 229.30 793.10 L 239.90 791.40 L 250.50 789.40 L 271.30 784.30 L 273.30 783.60 L 274.10 782.90 L 274.70 782.00 L 274.80 781.00 L 266.70 716.50 L 263.60 695.80 L 260.80 680.40 L 257.60 665.10 L 253.80 649.90 L 248.80 632.50 L 247.40 630.40 L 246.20 629.50 L 243.30 628.80 L 225.10 631.20 L 218.30 631.40 L 211.60 631.20 L 204.80 630.70 L 198.10 629.70 L 191.50 628.30 L 184.90 626.50" fill="#8896a8" fill-rule="nonzero" group-id="1" node-id="355" stroke="none" target-height="168.59998" target-width="131.19998" target-x="143.6" target-y="626.5"></path><path d="M 236.90 526.90 L 236.50 531.10 L 236.60 535.20 L 237.10 539.30 L 238.10 543.30 L 234.00 544.70 L 231.70 544.70 L 225.00 543.60 L 221.80 542.60 L 218.30 540.60 L 220.90 531.00 L 221.60 526.40 L 222.00 516.90 L 221.80 511.40 L 226.20 512.60 L 233.20 513.40 L 235.40 514.10 L 236.50 514.90 L 237.00 516.40 L 237.30 519.90 L 237.00 526.90" fill="#ffcdab" fill-rule="nonzero" group-id="1" node-id="357" stroke="none" target-height="33.30002" target-width="19.800003" target-x="218.3" target-y="511.4"></path><path d="M 224.70 526.70 L 223.70 524.10 L 223.20 521.40 L 222.10 510.30 L 226.40 511.80 L 233.20 513.40 L 235.30 514.10 L 236.40 514.90 L 237.00 516.40 L 237.30 519.90 L 237.30 523.40 L 236.60 531.50 L 236.70 536.10 L 234.20 535.30 L 229.70 532.70 L 226.10 529.00 L 224.70 526.70" fill="#f4bd98" fill-rule="nonzero" group-id="1" node-id="359" stroke="none" target-height="25.799988" target-width="15.199997" target-x="222.1" target-y="510.3"></path><path d="M 246.00 502.70 L 248.00 517.10 L 248.00 521.20 L 247.60 523.20 L 245.50 527.00 L 244.10 528.50 L 240.60 530.30 L 238.60 530.70 L 236.50 530.70 L 233.70 530.00 L 231.20 528.90 L 228.90 527.30 L 227.00 525.20 L 224.80 522.10 L 223.10 518.80 L 221.80 515.30 L 221.10 511.70 L 220.80 508.00 L 221.40 502.50 L 221.90 500.90 L 223.00 499.40 L 224.80 498.00 L 228.10 496.50 L 231.50 495.60 L 236.90 495.30 L 240.20 496.20 L 242.40 497.50 L 244.10 499.10 L 245.40 500.90 L 246.00 502.60" fill="#ffcdab" fill-rule="nonzero" group-id="1" node-id="361" stroke="none" target-height="35.400024" target-width="27.199997" target-x="220.8" target-y="495.3"></path><path d="M 248.20 491.30 L 250.30 493.10 L 252.60 496.30 L 253.00 498.00 L 252.70 499.60 L 251.80 501.30 L 250.90 502.10 L 249.20 502.30 L 247.40 501.70 L 246.80 501.90 L 244.50 504.60 L 243.30 505.00 L 240.50 505.10 L 237.10 504.20 L 235.60 503.20 L 233.00 500.70 L 231.30 500.00 L 229.70 500.60 L 229.20 501.90 L 228.90 504.20 L 227.90 505.40 L 226.50 505.80 L 225.70 505.60 L 223.30 504.20 L 222.00 501.80 L 221.80 499.90 L 222.00 498.10 L 223.70 494.60 L 226.50 491.90 L 228.60 491.10 L 230.40 490.80 L 236.20 490.70 L 240.10 489.30 L 242.20 489.30 L 244.40 489.80 L 248.10 491.30" fill="#141d30" fill-rule="nonzero" group-id="1" node-id="363" stroke="none" target-height="16.5" target-width="31.199997" target-x="221.8" target-y="489.3"></path><path d="M 227.50 498.90 L 226.40 501.60 L 225.80 504.50 L 225.50 508.60 L 221.60 515.10 L 218.60 512.00 L 217.40 510.10 L 216.60 507.80 L 216.30 506.20 L 216.40 504.30 L 217.70 499.70 L 218.90 497.60 L 220.50 496.20 L 221.90 495.60 L 224.30 495.60 L 226.90 497.50 L 227.50 498.90" fill="#141d30" fill-rule="nonzero" group-id="1" node-id="365" stroke="none" target-height="19.49997" target-width="11.199997" target-x="216.3" target-y="495.6"></path><path d="M 223.50 512.30 L 222.30 511.40 L 219.70 510.90 L 218.30 511.20 L 217.50 511.90 L 217.30 512.90 L 218.40 515.20 L 219.50 516.20 L 222.80 517.80 L 224.90 518.00 L 226.50 517.50 L 226.80 517.00 L 226.80 516.10 L 224.90 513.30 L 223.50 512.30" fill="#ffcdab" fill-rule="nonzero" group-id="1" node-id="367" stroke="none" target-height="7.100006" target-width="9.5" target-x="217.3" target-y="510.9"></path><path d="M 551.30 654.40 L 530.20 654.40 L 521.80 632.60 L 483.40 632.60 L 475.50 654.40 L 454.90 654.40 L 492.30 558.40 L 512.80 558.40 Z M 515.60 616.40 L 502.40 580.80 L 489.40 616.40 Z" fill="#6c63ff" fill-rule="nonzero" group-id="1" node-id="369" stroke="none" target-height="96" target-width="96.399994" target-x="454.9" target-y="558.4"></path><path d="M 561.00 654.40 L 561.00 558.40 L 580.40 558.40 L 580.40 654.40 Z" fill="#6c63ff" fill-rule="nonzero" group-id="1" node-id="371" stroke="none" target-height="96" target-width="19.400024" target-x="561" target-y="558.4"></path><path d="M 820.20 218.20 L 982.20 218.20 L 982.20 376.00 L 820.20 376.00 Z" fill="#ffffff" fill-rule="nonzero" group-id="1" node-id="373" stroke="none" target-height="157.8" target-width="162" target-x="820.2" target-y="218.2"></path><path d="M 820.20 218.20 L 982.10 218.20 L 982.10 237.80 L 820.20 237.80 Z" fill="#5d81ec" fill-rule="nonzero" group-id="1" node-id="375" stroke="none" target-height="19.600006" target-width="161.89996" target-x="820.2" target-y="218.2"></path><path d="M 833.90 226.30 L 833.60 227.50 L 833.00 228.40 L 832.00 229.10 L 830.90 229.30 L 829.70 229.10 L 828.70 228.40 L 828.10 227.50 L 827.90 226.30 L 828.10 225.10 L 828.70 224.20 L 829.70 223.60 L 830.90 223.30 L 832.00 223.60 L 833.00 224.20 L 833.60 225.10 L 833.90 226.30 Z" fill="#ffffff" fill-rule="nonzero" group-id="1" node-id="377" stroke="none" target-height="6" target-width="6" target-x="827.9" target-y="223.3"></path><path d="M 847.90 226.30 L 847.60 227.50 L 847.00 228.40 L 846.00 229.10 L 844.90 229.30 L 843.70 229.10 L 842.70 228.40 L 842.10 227.50 L 841.90 226.30 L 842.10 225.10 L 842.70 224.20 L 843.70 223.60 L 844.90 223.30 L 846.00 223.60 L 847.00 224.20 L 847.60 225.10 L 847.90 226.30 Z" fill="#ffffff" fill-rule="nonzero" group-id="1" node-id="379" stroke="none" target-height="6" target-width="6" target-x="841.9" target-y="223.3"></path><path d="M 861.80 226.30 L 861.60 227.50 L 861.00 228.40 L 860.00 229.10 L 858.80 229.30 L 857.70 229.10 L 856.70 228.40 L 856.10 227.50 L 855.80 226.30 L 856.10 225.10 L 856.70 224.20 L 857.70 223.60 L 858.80 223.30 L 860.00 223.60 L 861.00 224.20 L 861.60 225.10 L 861.80 226.30 Z" fill="#ffffff" fill-rule="nonzero" group-id="1" node-id="381" stroke="none" target-height="6" target-width="6" target-x="855.8" target-y="223.3"></path><path d="M 884.00 257.00 L 966.20 257.00 L 966.20 262.60 L 884.00 262.60 Z" fill="#e1edff" fill-rule="nonzero" group-id="1" node-id="383" stroke="none" target-height="5.600006" target-width="82.20001" target-x="884" target-y="257"></path><path d="M 884.00 268.90 L 966.20 268.90 L 966.20 274.50 L 884.00 274.50 Z" fill="#e1edff" fill-rule="nonzero" group-id="1" node-id="385" stroke="none" target-height="5.600006" target-width="82.20001" target-x="884" target-y="268.9"></path><path d="M 884.00 282.10 L 937.40 282.10 L 937.40 287.70 L 884.00 287.70 Z" fill="#77a3e8" fill-rule="nonzero" group-id="1" node-id="387" stroke="none" target-height="5.600006" target-width="53.400024" target-x="884" target-y="282.1"></path><path d="M 884.00 302.70 L 965.00 302.70 L 965.00 308.40 L 884.00 308.40 Z" fill="#e1edff" fill-rule="nonzero" group-id="1" node-id="389" stroke="none" target-height="5.6999817" target-width="81" target-x="884" target-y="302.7"></path><path d="M 884.00 315.30 L 965.00 315.30 L 965.00 320.90 L 884.00 320.90 Z" fill="#77a3e8" fill-rule="nonzero" group-id="1" node-id="391" stroke="none" target-height="5.600006" target-width="81" target-x="884" target-y="315.3"></path><path d="M 884.00 330.30 L 965.00 330.30 L 965.00 335.90 L 884.00 335.90 Z" fill="#e1edff" fill-rule="nonzero" group-id="1" node-id="393" stroke="none" target-height="5.600006" target-width="81" target-x="884" target-y="330.3"></path><path d="M 884.00 347.80 L 965.00 347.80 L 965.00 353.50 L 884.00 353.50 Z" fill="#77a3e8" fill-rule="nonzero" group-id="1" node-id="395" stroke="none" target-height="5.700012" target-width="81" target-x="884" target-y="347.8"></path><path d="M 849.80 285.80 L 872.20 285.80 L 872.20 291.50 L 849.80 291.50 Z" fill="#e1edff" fill-rule="nonzero" group-id="1" node-id="397" stroke="none" target-height="5.700012" target-width="22.400024" target-x="849.8" target-y="285.8"></path><path d="M 849.80 268.90 L 872.20 268.90 L 872.20 274.50 L 849.80 274.50 Z" fill="#77a3e8" fill-rule="nonzero" group-id="1" node-id="399" stroke="none" target-height="5.600006" target-width="22.400024" target-x="849.8" target-y="268.9"></path><path d="M 828.50 257.00 L 872.20 257.00 L 872.20 262.60 L 828.50 262.60 Z" fill="#e1edff" fill-rule="nonzero" group-id="1" node-id="401" stroke="none" target-height="5.600006" target-width="43.700012" target-x="828.5" target-y="257"></path><path d="M 833.00 298.30 L 872.20 298.30 L 872.20 304.00 L 833.00 304.00 Z" fill="#77a3e8" fill-rule="nonzero" group-id="1" node-id="403" stroke="none" target-height="5.700012" target-width="39.200012" target-x="833" target-y="298.3"></path><path d="M 854.30 312.80 L 872.20 312.80 L 872.20 318.40 L 854.30 318.40 Z" fill="#e1edff" fill-rule="nonzero" group-id="1" node-id="405" stroke="none" target-height="5.600006" target-width="17.900024" target-x="854.3" target-y="312.8"></path><path d="M 841.30 327.20 L 872.20 327.20 L 872.20 332.80 L 841.30 332.80 Z" fill="#77a3e8" fill-rule="nonzero" group-id="1" node-id="407" stroke="none" target-height="5.5999756" target-width="30.900024" target-x="841.3" target-y="327.2"></path><path d="M 847.60 351.00 L 872.20 351.00 L 872.20 356.60 L 847.60 356.60 Z" fill="#e1edff" fill-rule="nonzero" group-id="1" node-id="409" stroke="none" target-height="5.600006" target-width="24.600037" target-x="847.6" target-y="351"></path><g node-id="458"><path d="M 956.70 357.60 L 950.00 354.70 L 937.00 347.90 L 927.60 342.10 L 918.50 335.90 L 909.70 329.30 L 893.40 315.60 L 885.90 308.50 L 878.60 301.00 L 871.80 293.10 L 865.50 284.90 L 859.70 276.30 L 855.80 269.60 L 852.20 262.70 L 849.10 255.70 L 846.40 248.50 L 844.10 241.20 L 842.40 233.70 L 841.20 226.00 L 840.60 218.20 L 820.20 218.20 L 820.20 376.00 L 982.20 376.00 L 982.20 365.20 L 973.50 363.20 L 965.10 360.70 L 956.70 357.60 Z" fill="#b8d0ff" fill-opacity="0.4" fill-rule="nonzero" group-id="1,9" node-id="413" stroke="none" target-height="157.8" target-width="162" target-x="820.2" target-y="218.2"></path></g><path d="M 281.10 684.50 L 283.70 680.40 L 285.80 676.20 L 287.40 672.00 L 288.70 667.60 L 290.00 658.60 L 290.00 654.10 L 289.00 645.20 L 287.80 640.90 L 286.30 636.60 L 284.40 632.50 L 282.10 628.50 L 279.50 624.80 L 276.50 621.20 L 273.00 617.90 L 269.30 614.90 L 265.40 612.30 L 261.30 610.10 L 257.10 608.30 L 252.80 606.90 L 244.00 605.40 L 234.90 605.40 L 230.50 605.90 L 221.80 608.30 L 217.60 610.10 L 213.50 612.30 L 209.60 614.90 L 205.90 617.90 L 202.40 621.20 L 199.40 624.80 L 196.80 628.50 L 194.50 632.50 L 191.10 640.90 L 189.90 645.20 L 188.90 654.10 L 188.90 658.60 L 189.40 663.10 L 190.20 667.60 L 191.50 672.00 L 193.10 676.20 L 195.20 680.40 L 197.80 684.50 L 205.70 694.50 L 208.40 698.40 L 210.70 702.30 L 213.50 708.20 L 215.60 713.90 L 217.30 719.70 L 220.90 737.60 L 258.00 737.60 L 261.70 719.70 L 263.30 713.90 L 265.40 708.20 L 268.30 702.30 L 270.50 698.50 L 273.20 694.50 L 281.10 684.50 Z" fill="#ffbf00" fill-rule="nonzero" group-id="1" node-id="416" stroke="none" target-height="132.19995" target-width="101.100006" target-x="188.9" target-y="605.4"></path><path d="M 246.30 768.40 L 232.60 768.40 L 223.50 762.50 L 255.40 762.50 L 246.30 768.40 Z" fill="#203c79" fill-rule="nonzero" group-id="1" node-id="418" stroke="none" target-height="5.9000244" target-width="31.899994" target-x="223.5" target-y="762.5"></path><path d="M 255.40 742.50 L 223.50 742.50 L 220.90 737.60 L 258.00 737.60 L 255.40 742.50 Z" fill="#bdd6ff" fill-rule="nonzero" group-id="1" node-id="420" stroke="none" target-height="4.9000244" target-width="37.100006" target-x="220.9" target-y="737.6"></path><path d="M 223.50 742.50 L 255.40 742.50 L 255.40 762.50 L 223.50 762.50 Z" fill="#203c79" fill-rule="nonzero" group-id="1" node-id="422" stroke="none" target-height="20" target-width="31.899994" target-x="223.5" target-y="742.5"></path><path d="M 222.90 746.90 L 239.80 745.40 L 256.80 745.10 L 257.70 745.40 L 258.00 746.20 L 257.60 746.80 L 256.90 747.10 L 240.10 748.60 L 223.10 748.90 L 222.20 748.60 L 221.80 747.90 L 222.20 747.20 L 222.90 746.90 Z" fill="#345a91" fill-rule="nonzero" group-id="1" node-id="424" stroke="none" target-height="3.8000488" target-width="36.199997" target-x="221.8" target-y="745.1"></path><path d="M 222.50 752.40 L 230.90 751.50 L 247.80 750.50 L 256.80 750.70 L 257.50 751.30 L 257.20 752.30 L 248.10 753.50 L 231.20 754.40 L 222.10 754.30 L 221.40 753.40 L 221.70 752.70 L 222.50 752.40 Z" fill="#345a91" fill-rule="nonzero" group-id="1" node-id="426" stroke="none" target-height="3.9000244" target-width="36.100006" target-x="221.4" target-y="750.5"></path><path d="M 222.00 757.90 L 230.40 756.90 L 247.30 756.00 L 256.30 756.20 L 257.10 757.20 L 256.70 757.80 L 247.60 759.00 L 230.70 759.90 L 221.60 759.80 L 220.90 758.90 L 221.30 758.20 L 222.00 757.90 Z" fill="#345a91" fill-rule="nonzero" group-id="1" node-id="428" stroke="none" target-height="3.9000244" target-width="36.200012" target-x="220.9" target-y="756"></path><path d="M 239.30 596.60 L 238.10 596.40 L 236.00 595.20 L 234.80 593.20 L 234.60 591.90 L 234.60 566.50 L 235.30 564.20 L 237.00 562.50 L 238.10 562.00 L 239.30 561.80 L 241.70 562.50 L 243.40 564.20 L 244.10 566.50 L 243.90 593.20 L 243.40 594.30 L 241.70 596.00 L 239.30 596.60 Z" fill="#ff9700" fill-rule="nonzero" group-id="1" node-id="430" stroke="none" target-height="34.799988" target-width="9.5" target-x="234.6" target-y="561.8"></path><path d="M 194.50 614.10 L 192.20 613.50 L 191.20 612.80 L 173.30 594.80 L 172.50 593.80 L 171.80 591.50 L 172.40 589.10 L 174.20 587.40 L 176.60 586.70 L 178.90 587.40 L 179.90 588.20 L 197.80 606.10 L 198.70 607.20 L 199.20 609.90 L 198.80 611.20 L 198.10 612.40 L 195.90 613.90 L 194.50 614.10 Z" fill="#ff9700" fill-rule="nonzero" group-id="1" node-id="432" stroke="none" target-height="27.399963" target-width="27.399994" target-x="171.8" target-y="586.7"></path><path d="M 149.90 658.30 L 148.60 658.10 L 146.40 657.00 L 145.10 654.80 L 145.10 652.30 L 145.60 651.10 L 146.40 650.10 L 148.60 649.00 L 175.20 648.80 L 176.50 649.00 L 178.60 650.20 L 179.70 652.30 L 179.90 653.60 L 179.70 654.80 L 178.60 656.90 L 176.50 658.10 L 175.20 658.30 Z" fill="#ff9700" fill-rule="nonzero" group-id="1" node-id="434" stroke="none" target-height="9.5" target-width="34.799988" target-x="145.1" target-y="648.8"></path><path d="M 174.80 721.00 L 173.50 720.80 L 171.20 719.30 L 170.50 718.10 L 170.20 716.80 L 170.70 714.10 L 171.50 713.00 L 189.40 695.00 L 191.60 693.80 L 193.90 693.80 L 196.00 695.10 L 197.30 697.20 L 197.30 699.50 L 196.90 700.60 L 178.20 719.60 L 176.10 720.80 L 174.80 721.00 Z" fill="#ff9700" fill-rule="nonzero" group-id="1" node-id="436" stroke="none" target-height="27.200012" target-width="27.100006" target-x="170.2" target-y="693.8"></path><path d="M 299.60 722.80 L 298.40 722.60 L 296.30 721.40 L 278.40 703.50 L 277.20 701.30 L 277.20 699.00 L 277.70 697.90 L 278.40 696.80 L 280.50 695.60 L 282.90 695.60 L 284.00 696.00 L 303.00 714.70 L 303.80 715.80 L 304.30 717.10 L 304.00 719.80 L 302.30 721.90 L 299.70 722.70 Z" fill="#ff9700" fill-rule="nonzero" group-id="1" node-id="438" stroke="none" target-height="27.200012" target-width="27.099976" target-x="277.2" target-y="695.6"></path><path d="M 301.00 660.70 L 299.70 660.60 L 297.50 659.40 L 296.20 657.20 L 296.20 654.80 L 296.70 653.60 L 297.50 652.60 L 299.70 651.40 L 326.40 651.30 L 327.60 651.50 L 329.70 652.70 L 330.90 654.70 L 331.10 656.00 L 330.90 657.30 L 329.70 659.30 L 327.60 660.50 L 326.40 660.70 Z" fill="#ff9700" fill-rule="nonzero" group-id="1" node-id="440" stroke="none" target-height="9.400024" target-width="34.899994" target-x="296.2" target-y="651.3"></path><path d="M 283.50 615.90 L 282.10 615.70 L 279.90 614.20 L 279.10 613.00 L 278.80 611.60 L 279.30 609.00 L 280.10 607.90 L 298.10 590.00 L 299.00 589.10 L 301.40 588.40 L 303.90 589.00 L 305.60 590.80 L 306.20 593.20 L 305.50 595.60 L 286.80 614.50 L 285.80 615.30 L 283.50 615.90 Z" fill="#ff9700" fill-rule="nonzero" group-id="1" node-id="442" stroke="none" target-height="27.5" target-width="27.400024" target-x="278.8" target-y="588.4"></path><path d="M 173.80 574.90 L 163.00 607.80 L 160.60 618.20 L 159.90 622.80 L 159.80 626.40 L 160.40 630.80 L 161.30 635.10 L 162.70 639.20 L 164.50 643.30 L 167.50 648.40 L 170.50 652.70 L 173.90 656.70 L 188.50 671.30 L 192.40 675.80 L 194.50 673.50 L 197.30 671.90 L 189.70 659.40 L 183.80 648.30 L 179.80 637.90 L 177.80 629.10 L 177.40 624.60 L 177.50 620.10 L 178.10 615.60 L 180.00 609.00 L 181.60 605.60 L 190.00 591.80 L 192.20 587.60 L 194.90 581.10 L 195.80 578.20 L 198.50 563.20 L 198.50 558.50 L 198.20 556.20 L 197.60 554.00 L 196.80 552.60 L 194.60 551.30 L 192.80 551.10 L 190.50 551.40 L 187.20 552.90 L 185.20 554.40 L 181.60 558.50 L 179.50 561.70 L 175.80 569.40 L 173.80 574.90" fill="#ffcdab" fill-rule="nonzero" group-id="1" node-id="444" stroke="none" target-height="124.70001" target-width="38.699997" target-x="159.8" target-y="551.1"></path><path d="M 191.80 674.50 L 194.70 682.40 L 197.80 688.00 L 198.50 688.70 L 199.40 689.10 L 199.70 688.50 L 197.80 685.10 L 197.50 683.60 L 199.00 686.00 L 200.80 688.10 L 202.90 690.00 L 205.30 691.60 L 205.50 690.60 L 205.10 689.60 L 202.40 687.00 L 200.70 684.00 L 204.00 687.80 L 206.00 689.30 L 208.30 690.20 L 208.50 689.40 L 208.30 688.70 L 205.60 686.30 L 203.30 683.00 L 205.40 685.10 L 207.80 686.80 L 210.50 688.20 L 210.70 687.50 L 210.40 686.90 L 206.00 682.40 L 204.00 678.30 L 209.10 678.20 L 210.20 677.30 L 210.30 676.60 L 202.50 674.70 L 200.10 673.60 L 198.00 672.20 L 196.10 670.40 L 191.80 674.50" fill="#ffcdab" fill-rule="nonzero" group-id="1" node-id="446" stroke="none" target-height="21.199951" target-width="18.899994" target-x="191.8" target-y="670.4"></path><path d="M 201.30 540.30 L 197.80 540.50 L 194.50 541.30 L 191.30 542.60 L 188.40 544.60 L 185.40 547.50 L 182.90 550.80 L 179.40 556.20 L 176.40 561.80 L 173.90 567.70 L 171.90 573.80 L 170.50 580.00 L 169.60 586.40 L 177.50 588.90 L 185.50 590.70 L 194.50 592.00 L 195.40 591.70 L 195.80 591.10 L 198.50 580.30 L 200.50 570.10 L 202.10 559.80 L 203.20 549.40 L 203.40 545.30 L 202.60 541.40 L 201.80 540.50 L 201.20 540.30" fill="#ebf3ff" fill-rule="nonzero" group-id="1" node-id="448" stroke="none" target-height="51.700012" target-width="33.799988" target-x="169.6" target-y="540.3"></path></g></svg>